<?xml version="1.0" encoding="UTF-8"?>
<!DOCTYPE svg PUBLIC "-//W3C//DTD SVG 1.1//EN" "http://www.w3.org/Graphics/SVG/1.1/DTD/svg11.dtd">
<svg xmlns="http://www.w3.org/2000/svg" version="1.1" width="500px" height="500px" style="shape-rendering:geometricPrecision; text-rendering:geometricPrecision; image-rendering:optimizeQuality; fill-rule:evenodd; clip-rule:evenodd" xmlns:xlink="http://www.w3.org/1999/xlink">
<g><path style="opacity:1" fill="#3773a5" d="M 104.5,39.5 C 137.093,40.4924 169.76,40.8257 202.5,40.5C 192.008,41.3304 181.341,41.8304 170.5,42C 196.095,42.5309 215.428,43.0309 228.5,43.5C 228.587,46.5983 228.087,46.9316 227,44.5C 223,44.5 219,44.5 215,44.5C 214.333,47.1667 213.667,47.1667 213,44.5C 212.333,47.1667 211.667,47.1667 211,44.5C 210.333,47.1667 209.667,47.1667 209,44.5C 208.517,45.448 208.351,46.448 208.5,47.5C 216.307,48.1345 223.974,48.1345 231.5,47.5C 231.5,48.8333 231.5,50.1667 231.5,51.5C 234.167,51.5 236.833,51.5 239.5,51.5C 239.5,54.8333 239.5,58.1667 239.5,61.5C 244.833,62.1667 250.167,62.8333 255.5,63.5C 255.5,60.8333 255.5,58.1667 255.5,55.5C 258.167,55.5 260.833,55.5 263.5,55.5C 263.5,56.8333 263.5,58.1667 263.5,59.5C 268.833,59.5 274.167,59.5 279.5,59.5C 279.5,60.8333 279.5,62.1667 279.5,63.5C 282.167,63.5 284.833,63.5 287.5,63.5C 287.055,66.3646 287.722,68.8646 289.5,71C 288.027,71.7096 287.36,72.8762 287.5,74.5C 290.167,74.5 292.833,74.5 295.5,74.5C 295.5,75.5 295.5,76.5 295.5,77.5C 298.518,77.3354 301.518,77.502 304.5,78C 307.268,84.7178 312.268,87.2178 319.5,85.5C 319.5,87.1667 319.5,88.8333 319.5,90.5C 322.167,90.5 324.833,90.5 327.5,90.5C 327.5,91.5 327.5,92.5 327.5,93.5C 338.167,94.1667 338.167,94.8333 327.5,95.5C 327.5,96.5 327.5,97.5 327.5,98.5C 332.833,98.5 338.167,98.5 343.5,98.5C 343.5,101.167 343.5,103.833 343.5,106.5C 347.347,106.381 351.014,107.047 354.5,108.5C 354.5,109.5 354.5,110.5 354.5,111.5C 356.346,111.778 357.68,111.111 358.5,109.5C 357.845,106.341 356.178,103.841 353.5,102C 356.803,96.4485 355.137,94.2818 348.5,95.5C 348.5,94.5 348.5,93.5 348.5,92.5C 350.665,92.8841 352.332,92.2174 353.5,90.5C 350.404,88.8688 347.57,86.8688 345,84.5C 343.872,82.6547 343.372,80.6547 343.5,78.5C 360.103,93.2692 375.937,108.936 391,125.5C 392.202,128.774 393.202,132.107 394,135.5C 394.5,148.496 394.667,161.496 394.5,174.5C 394.167,174.5 393.833,174.5 393.5,174.5C 394.08,170.351 393.414,166.684 391.5,163.5C 388.159,162.998 385.159,161.664 382.5,159.5C 381.262,163.311 380.596,163.311 380.5,159.5C 376.18,159.959 375.513,161.792 378.5,165C 377.551,165.617 376.718,165.451 376,164.5C 375.506,162.866 375.34,161.199 375.5,159.5C 372.833,159.5 370.167,159.5 367.5,159.5C 367.613,162.049 366.946,164.382 365.5,166.5C 367.04,167.532 367.54,168.865 367,170.5C 365.331,168.279 363.331,167.945 361,169.5C 357.676,168.314 354.843,166.48 352.5,164C 349.518,163.502 346.518,163.335 343.5,163.5C 343.5,162.167 343.5,160.833 343.5,159.5C 340.482,159.665 337.482,159.498 334.5,159C 332.451,156.407 330.285,153.907 328,151.5C 327.621,156.24 326.121,156.406 323.5,152C 322.207,151.51 320.873,151.343 319.5,151.5C 319.657,150.127 319.49,148.793 319,147.5C 316.782,146.076 315.282,144.076 314.5,141.5C 312.077,138.794 310.91,139.461 311,143.5C 308.715,141.093 306.549,138.593 304.5,136C 307.85,134.98 307.683,133.48 304,131.5C 303.51,130.207 303.343,128.873 303.5,127.5C 297.824,127.666 292.157,127.499 286.5,127C 287.059,126.275 287.392,125.442 287.5,124.5C 286.64,122.728 285.307,121.395 283.5,120.5C 284.025,119.808 284.692,119.308 285.5,119C 284.213,117.59 283.046,116.09 282,114.5C 280.397,118.123 279.064,121.789 278,125.5C 278.305,123.557 278.305,121.557 278,119.5C 277.751,120.624 277.251,121.624 276.5,122.5C 275.979,118.587 274.979,114.587 273.5,110.5C 272.466,107.875 271.466,107.875 270.5,110.5C 269.317,109.496 267.984,108.662 266.5,108C 224.501,107.5 182.501,107.333 140.5,107.5C 181.331,106.667 222.331,106.167 263.5,106C 260.833,105.667 258.167,105.333 255.5,105C 260.611,103.328 260.611,102.162 255.5,101.5C 255.5,100.5 255.5,99.5 255.5,98.5C 247.5,98.5 239.5,98.5 231.5,98.5C 231.5,97.5 231.5,96.5 231.5,95.5C 234.167,95.5 236.833,95.5 239.5,95.5C 239.5,92.1667 239.5,88.8333 239.5,85.5C 236.212,85.073 233.212,85.7397 230.5,87.5C 228.548,85.2588 226.382,83.2588 224,81.5C 222.6,82.1159 221.1,82.4493 219.5,82.5C 212.665,81.9297 205.999,80.9297 199.5,79.5C 199.5,78.5 199.5,77.5 199.5,76.5C 196.833,76.5 194.167,76.5 191.5,76.5C 191.5,75.5 191.5,74.5 191.5,73.5C 187.022,73.4643 182.689,72.6309 178.5,71C 176.393,69.7365 175.393,67.9032 175.5,65.5C 169.657,66.4774 164.657,64.9774 160.5,61C 153.47,60.7996 147.47,58.2996 142.5,53.5C 141.264,52.7542 139.93,52.4208 138.5,52.5C 138.714,50.8561 138.38,49.3561 137.5,48C 129.188,46.8388 120.854,45.8388 112.5,45C 116.304,43.5057 115.971,42.6724 111.5,42.5C 111.5,43.5 111.5,44.5 111.5,45.5C 109.473,45.6621 107.473,45.4955 105.5,45C 104.809,43.9326 104.309,42.7659 104,41.5C 101.072,45.769 97.5716,46.769 93.5,44.5C 96.4809,41.5124 100.148,39.8457 104.5,39.5 Z"/></g>
<g><path style="opacity:1" fill="#3976a9" d="M 202.5,40.5 C 233.835,40.3334 265.168,40.5 296.5,41C 300.904,41.7011 304.571,43.7011 307.5,47C 306.062,47.2189 304.729,47.7189 303.5,48.5C 305.485,50.9326 307.652,50.9326 310,48.5C 311.458,51.1287 313.625,52.7954 316.5,53.5C 317.8,56.4642 319.133,59.4642 320.5,62.5C 321.446,62.0133 322.446,61.6799 323.5,61.5C 325.289,62.9634 327.289,63.9634 329.5,64.5C 332.335,67.1653 335.335,69.6653 338.5,72C 340.79,73.7772 342.457,75.9438 343.5,78.5C 343.372,80.6547 343.872,82.6547 345,84.5C 347.57,86.8688 350.404,88.8688 353.5,90.5C 352.332,92.2174 350.665,92.8841 348.5,92.5C 348.5,93.5 348.5,94.5 348.5,95.5C 355.137,94.2818 356.803,96.4485 353.5,102C 356.178,103.841 357.845,106.341 358.5,109.5C 357.68,111.111 356.346,111.778 354.5,111.5C 354.5,110.5 354.5,109.5 354.5,108.5C 351.014,107.047 347.347,106.381 343.5,106.5C 343.5,103.833 343.5,101.167 343.5,98.5C 338.167,98.5 332.833,98.5 327.5,98.5C 327.5,97.5 327.5,96.5 327.5,95.5C 338.167,94.8333 338.167,94.1667 327.5,93.5C 327.5,92.5 327.5,91.5 327.5,90.5C 324.833,90.5 322.167,90.5 319.5,90.5C 319.5,88.8333 319.5,87.1667 319.5,85.5C 312.268,87.2178 307.268,84.7178 304.5,78C 301.518,77.502 298.518,77.3354 295.5,77.5C 295.5,76.5 295.5,75.5 295.5,74.5C 292.833,74.5 290.167,74.5 287.5,74.5C 287.36,72.8762 288.027,71.7096 289.5,71C 287.722,68.8646 287.055,66.3646 287.5,63.5C 284.833,63.5 282.167,63.5 279.5,63.5C 279.5,62.1667 279.5,60.8333 279.5,59.5C 274.167,59.5 268.833,59.5 263.5,59.5C 263.5,58.1667 263.5,56.8333 263.5,55.5C 260.833,55.5 258.167,55.5 255.5,55.5C 255.5,58.1667 255.5,60.8333 255.5,63.5C 250.167,62.8333 244.833,62.1667 239.5,61.5C 239.5,58.1667 239.5,54.8333 239.5,51.5C 236.833,51.5 234.167,51.5 231.5,51.5C 231.5,50.1667 231.5,48.8333 231.5,47.5C 223.974,48.1345 216.307,48.1345 208.5,47.5C 208.351,46.448 208.517,45.448 209,44.5C 209.667,47.1667 210.333,47.1667 211,44.5C 211.667,47.1667 212.333,47.1667 213,44.5C 213.667,47.1667 214.333,47.1667 215,44.5C 219,44.5 223,44.5 227,44.5C 228.087,46.9316 228.587,46.5983 228.5,43.5C 215.428,43.0309 196.095,42.5309 170.5,42C 181.341,41.8304 192.008,41.3304 202.5,40.5 Z"/></g>
<g><path style="opacity:1" fill="#326d9f" d="M 140.5,107.5 C 137.697,107.961 135.363,109.295 133.5,111.5C 134.126,108.685 135.46,106.185 137.5,104C 136.328,101.945 134.661,101.278 132.5,102C 132.833,102.333 133.167,102.667 133.5,103C 131,104.167 129.167,106 128,108.5C 127.833,107.667 127.667,106.833 127.5,106C 128.535,104.162 129.535,102.329 130.5,100.5C 130.132,99.09 129.299,98.09 128,97.5C 127.503,94.854 127.336,92.1873 127.5,89.5C 124.482,89.6646 121.482,89.498 118.5,89C 116.102,83.7938 112.102,80.4604 106.5,79C 103.086,72.7553 98.7527,67.2553 93.5,62.5C 92.8847,59.9607 92.2181,57.4607 91.5,55C 93.5951,54.4444 93.7618,53.9444 92,53.5C 91.0546,53.9054 90.3879,54.572 90,55.5C 89.2798,53.9443 88.1132,52.9443 86.5,52.5C 85.609,53.1098 84.609,53.4431 83.5,53.5C 86.2109,49.7881 89.5442,46.7881 93.5,44.5C 97.5716,46.769 101.072,45.769 104,41.5C 104.309,42.7659 104.809,43.9326 105.5,45C 107.473,45.4955 109.473,45.6621 111.5,45.5C 111.5,44.5 111.5,43.5 111.5,42.5C 115.971,42.6724 116.304,43.5057 112.5,45C 120.854,45.8388 129.188,46.8388 137.5,48C 138.38,49.3561 138.714,50.8561 138.5,52.5C 139.93,52.4208 141.264,52.7542 142.5,53.5C 147.47,58.2996 153.47,60.7996 160.5,61C 164.657,64.9774 169.657,66.4774 175.5,65.5C 175.393,67.9032 176.393,69.7365 178.5,71C 182.689,72.6309 187.022,73.4643 191.5,73.5C 191.5,74.5 191.5,75.5 191.5,76.5C 194.167,76.5 196.833,76.5 199.5,76.5C 199.5,77.5 199.5,78.5 199.5,79.5C 205.999,80.9297 212.665,81.9297 219.5,82.5C 221.1,82.4493 222.6,82.1159 224,81.5C 226.382,83.2588 228.548,85.2588 230.5,87.5C 233.212,85.7397 236.212,85.073 239.5,85.5C 239.5,88.8333 239.5,92.1667 239.5,95.5C 236.833,95.5 234.167,95.5 231.5,95.5C 231.5,96.5 231.5,97.5 231.5,98.5C 239.5,98.5 247.5,98.5 255.5,98.5C 255.5,99.5 255.5,100.5 255.5,101.5C 260.611,102.162 260.611,103.328 255.5,105C 258.167,105.333 260.833,105.667 263.5,106C 222.331,106.167 181.331,106.667 140.5,107.5 Z"/></g>
<g><path style="opacity:1" fill="#678db0" d="M 104.5,39.5 C 168.665,38.3346 232.999,38.168 297.5,39C 301.5,40.6667 305.5,42.3333 309.5,44C 316.397,50.7285 323.063,57.5619 329.5,64.5C 327.289,63.9634 325.289,62.9634 323.5,61.5C 322.446,61.6799 321.446,62.0133 320.5,62.5C 319.133,59.4642 317.8,56.4642 316.5,53.5C 313.625,52.7954 311.458,51.1287 310,48.5C 307.652,50.9326 305.485,50.9326 303.5,48.5C 304.729,47.7189 306.062,47.2189 307.5,47C 304.571,43.7011 300.904,41.7011 296.5,41C 265.168,40.5 233.835,40.3334 202.5,40.5C 169.76,40.8257 137.093,40.4924 104.5,39.5 Z"/></g>
<g><path style="opacity:1" fill="#deecf3" d="M 140.5,107.5 C 182.501,107.333 224.501,107.5 266.5,108C 267.984,108.662 269.317,109.496 270.5,110.5C 273.15,115.634 272.817,120.634 269.5,125.5C 268.244,125.461 267.244,125.961 266.5,127C 223.835,127.5 181.168,127.667 138.5,127.5C 132.839,123.513 131.172,118.18 133.5,111.5C 135.363,109.295 137.697,107.961 140.5,107.5 Z"/></g>
<g><path style="opacity:1" fill="#375e85" d="M 269.5,125.5 C 269.047,126.458 268.381,127.292 267.5,128C 226.501,128.5 185.501,128.667 144.5,128.5C 142.265,128.795 140.265,128.461 138.5,127.5C 181.168,127.667 223.835,127.5 266.5,127C 267.244,125.961 268.244,125.461 269.5,125.5 Z"/></g>
<g><path style="opacity:1" fill="#2c6799" d="M 86.5,52.5 C 88.1132,52.9443 89.2798,53.9443 90,55.5C 90.3879,54.572 91.0546,53.9054 92,53.5C 93.7618,53.9444 93.5951,54.4444 91.5,55C 92.2181,57.4607 92.8847,59.9607 93.5,62.5C 98.7527,67.2553 103.086,72.7553 106.5,79C 112.102,80.4604 116.102,83.7938 118.5,89C 121.482,89.498 124.482,89.6646 127.5,89.5C 127.336,92.1873 127.503,94.854 128,97.5C 129.299,98.09 130.132,99.09 130.5,100.5C 129.535,102.329 128.535,104.162 127.5,106C 127.667,106.833 127.833,107.667 128,108.5C 129.167,106 131,104.167 133.5,103C 133.167,102.667 132.833,102.333 132.5,102C 134.661,101.278 136.328,101.945 137.5,104C 135.46,106.185 134.126,108.685 133.5,111.5C 131.172,118.18 132.839,123.513 138.5,127.5C 140.265,128.461 142.265,128.795 144.5,128.5C 167.996,129.332 191.663,129.832 215.5,130C 204.833,130.333 194.167,130.667 183.5,131C 191.5,131.333 199.5,131.667 207.5,132C 204.128,132.134 200.961,132.968 198,134.5C 191.454,133.07 184.954,133.237 178.5,135C 184.196,135.17 189.862,135.67 195.5,136.5C 196.833,137.5 198.167,138.5 199.5,139.5C 205.128,140.495 210.794,140.829 216.5,140.5C 218.209,145.41 220.876,145.743 224.5,141.5C 225.719,142.263 226.719,143.263 227.5,144.5C 228.293,144.069 229.127,143.735 230,143.5C 233.298,145.067 236.798,145.9 240.5,146C 243.001,148.139 245.168,150.639 247,153.5C 247.388,152.572 248.055,151.905 249,151.5C 250.78,153.346 252.78,155.013 255,156.5C 255.677,154.311 256.844,153.978 258.5,155.5C 260.03,158.187 262.197,160.187 265,161.5C 265.818,166.794 266.318,166.794 266.5,161.5C 273.175,161.334 279.842,161.5 286.5,162C 286,162.5 285.5,163 285,163.5C 280.667,163.167 276.333,162.833 272,162.5C 271.517,163.448 271.351,164.448 271.5,165.5C 277.509,165.334 283.509,165.501 289.5,166C 291.117,167.092 292.117,168.592 292.5,170.5C 291.391,170.443 290.391,170.11 289.5,169.5C 289.158,168.662 288.492,168.328 287.5,168.5C 236.64,167.178 185.64,167.178 134.5,168.5C 134.511,166.983 135.177,165.816 136.5,165C 138.936,165.053 141.269,164.887 143.5,164.5C 142.557,161.573 140.557,158.907 137.5,156.5C 134.924,155.718 132.924,154.218 131.5,152C 130.207,151.51 128.873,151.343 127.5,151.5C 127.5,150.167 127.5,148.833 127.5,147.5C 124.833,147.5 122.167,147.5 119.5,147.5C 119.5,146.167 119.5,144.833 119.5,143.5C 118.127,143.657 116.793,143.49 115.5,143C 114.076,140.782 112.076,139.282 109.5,138.5C 106.749,135.945 107.416,134.945 111.5,135.5C 111.5,134.5 111.5,133.5 111.5,132.5C 106.418,133.554 102.418,132.054 99.5,128C 96.854,127.503 94.1873,127.336 91.5,127.5C 91.5527,122.648 89.8861,118.648 86.5,115.5C 85.4989,131.786 85.1656,149.452 85.5,168.5C 85.1667,168.5 84.8333,168.5 84.5,168.5C 84.3333,131.832 84.5,95.1652 85,58.5C 85.813,56.5643 86.313,54.5643 86.5,52.5 Z"/></g>
<g><path style="opacity:1" fill="#266092" d="M 86.5,115.5 C 89.8861,118.648 91.5527,122.648 91.5,127.5C 94.1873,127.336 96.854,127.503 99.5,128C 102.418,132.054 106.418,133.554 111.5,132.5C 111.5,133.5 111.5,134.5 111.5,135.5C 107.416,134.945 106.749,135.945 109.5,138.5C 112.076,139.282 114.076,140.782 115.5,143C 116.793,143.49 118.127,143.657 119.5,143.5C 119.5,144.833 119.5,146.167 119.5,147.5C 122.167,147.5 124.833,147.5 127.5,147.5C 127.5,148.833 127.5,150.167 127.5,151.5C 128.873,151.343 130.207,151.51 131.5,152C 132.924,154.218 134.924,155.718 137.5,156.5C 140.557,158.907 142.557,161.573 143.5,164.5C 141.269,164.887 138.936,165.053 136.5,165C 135.177,165.816 134.511,166.983 134.5,168.5C 132.081,170.259 130.414,172.592 129.5,175.5C 130.163,178.806 130.663,182.139 131,185.5C 131.318,187.061 132.151,188.228 133.5,189C 157.123,190.449 180.789,190.949 204.5,190.5C 203.828,191.267 202.995,191.934 202,192.5C 195.67,191.876 188.17,191.709 179.5,192C 183.227,194.986 187.561,196.319 192.5,196C 194.043,198.702 196.376,199.868 199.5,199.5C 199.5,200.833 199.5,202.167 199.5,203.5C 202.909,203.249 206.242,203.583 209.5,204.5C 210.862,207.236 212.696,209.569 215,211.5C 215.333,210.167 215.667,208.833 216,207.5C 218.333,210.167 220.667,212.833 223,215.5C 223.379,210.76 224.879,210.594 227.5,215C 228.793,215.49 230.127,215.657 231.5,215.5C 231.678,218.879 231.678,222.045 231.5,225C 239.746,225.815 247.912,225.648 256,224.5C 257.284,225.572 257.617,226.905 257,228.5C 259.071,229.103 260.238,230.436 260.5,232.5C 258.862,231.343 257.196,230.176 255.5,229C 218.167,228.667 180.833,228.333 143.5,228C 142.584,227.722 141.918,227.222 141.5,226.5C 140.147,225.133 140.481,224.133 142.5,223.5C 143.48,220.914 143.813,218.247 143.5,215.5C 138.639,215.143 135.805,212.476 135,207.5C 133.084,205.791 130.918,204.457 128.5,203.5C 127.571,202.311 127.238,200.978 127.5,199.5C 126.127,199.657 124.793,199.49 123.5,199C 122.076,196.782 120.076,195.282 117.5,194.5C 116.138,191.764 114.304,189.431 112,187.5C 111.667,186.167 111.333,184.833 111,183.5C 109.135,188.794 107.635,188.794 106.5,183.5C 105.5,183.5 104.5,183.5 103.5,183.5C 103.313,180.974 101.98,179.307 99.5,178.5C 97.8333,179.5 96.1667,180.5 94.5,181.5C 94.1667,181.167 93.8333,180.833 93.5,180.5C 94.1667,179.833 94.8333,179.167 95.5,178.5C 92.8333,178.167 90.1667,177.833 87.5,177.5C 88.376,176.749 89.376,176.249 90.5,176C 89.5838,175.626 88.7504,175.126 88,174.5C 86.9263,154.847 86.4263,135.181 86.5,115.5 Z"/></g>
<g><path style="opacity:1" fill="#306c9f" d="M 391.5,163.5 C 367.786,174.856 344.12,186.523 320.5,198.5C 317.636,195.714 314.302,193.381 310.5,191.5C 309.655,195.351 307.322,197.351 303.5,197.5C 303.663,195.143 303.497,192.81 303,190.5C 301.473,188.779 300.473,186.779 300,184.5C 297.424,181.847 295.924,182.514 295.5,186.5C 297.452,188.126 298.786,190.126 299.5,192.5C 295.628,192.758 291.961,192.091 288.5,190.5C 288.5,190.167 288.5,189.833 288.5,189.5C 290.919,187.856 293.086,185.856 295,183.5C 296.158,178.693 295.324,174.36 292.5,170.5C 292.117,168.592 291.117,167.092 289.5,166C 283.509,165.501 277.509,165.334 271.5,165.5C 271.351,164.448 271.517,163.448 272,162.5C 276.333,162.833 280.667,163.167 285,163.5C 285.5,163 286,162.5 286.5,162C 279.842,161.5 273.175,161.334 266.5,161.5C 266.318,166.794 265.818,166.794 265,161.5C 262.197,160.187 260.03,158.187 258.5,155.5C 256.844,153.978 255.677,154.311 255,156.5C 252.78,155.013 250.78,153.346 249,151.5C 248.055,151.905 247.388,152.572 247,153.5C 245.168,150.639 243.001,148.139 240.5,146C 236.798,145.9 233.298,145.067 230,143.5C 229.127,143.735 228.293,144.069 227.5,144.5C 226.719,143.263 225.719,142.263 224.5,141.5C 220.876,145.743 218.209,145.41 216.5,140.5C 210.794,140.829 205.128,140.495 199.5,139.5C 198.167,138.5 196.833,137.5 195.5,136.5C 189.862,135.67 184.196,135.17 178.5,135C 184.954,133.237 191.454,133.07 198,134.5C 200.961,132.968 204.128,132.134 207.5,132C 199.5,131.667 191.5,131.333 183.5,131C 194.167,130.667 204.833,130.333 215.5,130C 191.663,129.832 167.996,129.332 144.5,128.5C 185.501,128.667 226.501,128.5 267.5,128C 268.381,127.292 269.047,126.458 269.5,125.5C 272.817,120.634 273.15,115.634 270.5,110.5C 271.466,107.875 272.466,107.875 273.5,110.5C 274.979,114.587 275.979,118.587 276.5,122.5C 277.251,121.624 277.751,120.624 278,119.5C 278.305,121.557 278.305,123.557 278,125.5C 279.064,121.789 280.397,118.123 282,114.5C 283.046,116.09 284.213,117.59 285.5,119C 284.692,119.308 284.025,119.808 283.5,120.5C 285.307,121.395 286.64,122.728 287.5,124.5C 287.392,125.442 287.059,126.275 286.5,127C 292.157,127.499 297.824,127.666 303.5,127.5C 303.343,128.873 303.51,130.207 304,131.5C 307.683,133.48 307.85,134.98 304.5,136C 306.549,138.593 308.715,141.093 311,143.5C 310.91,139.461 312.077,138.794 314.5,141.5C 315.282,144.076 316.782,146.076 319,147.5C 319.49,148.793 319.657,150.127 319.5,151.5C 320.873,151.343 322.207,151.51 323.5,152C 326.121,156.406 327.621,156.24 328,151.5C 330.285,153.907 332.451,156.407 334.5,159C 337.482,159.498 340.482,159.665 343.5,159.5C 343.5,160.833 343.5,162.167 343.5,163.5C 346.518,163.335 349.518,163.502 352.5,164C 354.843,166.48 357.676,168.314 361,169.5C 363.331,167.945 365.331,168.279 367,170.5C 367.54,168.865 367.04,167.532 365.5,166.5C 366.946,164.382 367.613,162.049 367.5,159.5C 370.167,159.5 372.833,159.5 375.5,159.5C 375.34,161.199 375.506,162.866 376,164.5C 376.718,165.451 377.551,165.617 378.5,165C 375.513,161.792 376.18,159.959 380.5,159.5C 380.596,163.311 381.262,163.311 382.5,159.5C 385.159,161.664 388.159,162.998 391.5,163.5 Z"/></g>
<g><path style="opacity:1" fill="#0a3863" d="M 86.5,52.5 C 86.313,54.5643 85.813,56.5643 85,58.5C 84.5,95.1652 84.3333,131.832 84.5,168.5C 84.5,201.5 84.5,234.5 84.5,267.5C 84.5,274.5 84.5,281.5 84.5,288.5C 84.5,314.5 84.5,340.5 84.5,366.5C 83.6671,298.001 83.1671,229.335 83,160.5C 82.3988,162.137 81.8988,163.803 81.5,165.5C 82.2978,187.346 82.4644,209.346 82,231.5C 81.6667,226.833 81.3333,222.167 81,217.5C 80.6667,220.833 80.3333,224.167 80,227.5C 79.9586,220.996 79.292,214.662 78,208.5C 77.285,178.971 77.4516,149.471 78.5,120C 78.038,109.33 77.3713,98.83 76.5,88.5C 76.5,81.5 76.5,74.5 76.5,67.5C 77.2663,61.9672 79.5996,57.3005 83.5,53.5C 84.609,53.4431 85.609,53.1098 86.5,52.5 Z"/></g>
<g><path style="opacity:0.98" fill="#e3b479" d="M 446.5,161.5 C 445.833,161.167 445.167,160.833 444.5,160.5C 440.883,156.904 436.883,156.57 432.5,159.5C 431.5,159.5 430.5,159.5 429.5,159.5C 433.584,155.541 438.25,154.708 443.5,157C 445.141,158.129 446.141,159.629 446.5,161.5 Z"/></g>
<g><path style="opacity:1" fill="#c0d5f0" d="M 138.5,169.5 C 187.997,168.501 237.664,168.168 287.5,168.5C 288.492,168.328 289.158,168.662 289.5,169.5C 239.001,169.52 188.668,169.52 138.5,169.5 Z"/></g>
<g><path style="opacity:1" fill="#f09123" d="M 444.5,160.5 C 443.504,160.414 442.671,160.748 442,161.5C 431.319,205.693 420.153,249.693 408.5,293.5C 407.167,293.5 405.833,293.5 404.5,293.5C 397.222,288.888 390.888,283.221 385.5,276.5C 386.822,276.33 387.989,276.663 389,277.5C 389.5,276.333 390.333,275.5 391.5,275C 388.565,274.195 386.065,272.695 384,270.5C 383.333,269.5 383.333,268.5 384,267.5C 387.324,265.307 387.157,263.974 383.5,263.5C 383.5,260.833 383.5,258.167 383.5,255.5C 380.167,255.5 376.833,255.5 373.5,255.5C 373.54,252.575 372.707,249.909 371,247.5C 368.833,252.667 366.333,252.833 363.5,248C 364.793,247.51 366.127,247.343 367.5,247.5C 367.666,237.494 367.5,227.494 367,217.5C 366.5,217 366,216.5 365.5,216C 367.291,213.894 367.958,211.394 367.5,208.5C 366.167,208.5 364.833,208.5 363.5,208.5C 363.5,207.5 363.5,206.5 363.5,205.5C 364.833,205.5 366.167,205.5 367.5,205.5C 367.5,204.5 367.5,203.5 367.5,202.5C 364.575,202.54 361.909,201.707 359.5,200C 358.167,199.333 358.167,198.667 359.5,198C 362.076,197.394 364.41,197.894 366.5,199.5C 373.735,195.79 381.402,193.124 389.5,191.5C 392.251,188.791 395.584,187.125 399.5,186.5C 398.5,185.667 397.5,184.833 396.5,184C 396.833,183.667 397.167,183.333 397.5,183C 399.5,183 401.5,183 403.5,183C 401.998,182.417 400.665,181.584 399.5,180.5C 401.271,180.72 402.938,179.887 404.5,178C 405.712,176.893 405.379,176.393 403.5,176.5C 410.096,173.792 416.762,170.958 423.5,168C 425.677,166.814 426.677,164.981 426.5,162.5C 428.06,162.519 429.56,162.852 431,163.5C 431.5,163.167 432,162.833 432.5,162.5C 431.624,161.749 430.624,161.249 429.5,161C 430.737,160.768 431.737,160.268 432.5,159.5C 436.883,156.57 440.883,156.904 444.5,160.5 Z"/></g>
<g><path style="opacity:0.992" fill="#de9e5b" d="M 446.5,161.5 C 447.634,163.966 447.801,166.633 447,169.5C 445.676,174.681 444.176,179.681 442.5,184.5C 443.472,176.766 444.805,169.1 446.5,161.5 Z"/></g>
<g><path style="opacity:1" fill="#d39e57" d="M 390.5,177.5 C 389.71,178.794 388.71,179.961 387.5,181C 382.499,182.569 377.499,184.069 372.5,185.5C 378.127,182.279 384.127,179.613 390.5,177.5 Z"/></g>
<g><path style="opacity:1" fill="#f19f3b" d="M 429.5,159.5 C 430.5,159.5 431.5,159.5 432.5,159.5C 431.737,160.268 430.737,160.768 429.5,161C 430.624,161.249 431.624,161.749 432.5,162.5C 432,162.833 431.5,163.167 431,163.5C 429.56,162.852 428.06,162.519 426.5,162.5C 426.677,164.981 425.677,166.814 423.5,168C 416.762,170.958 410.096,173.792 403.5,176.5C 376.761,187.567 350.428,199.067 324.5,211C 320.942,211.146 317.609,211.979 314.5,213.5C 316.621,210.047 319.621,207.714 323.5,206.5C 327.157,205.185 330.824,203.852 334.5,202.5C 338.166,202.488 341.166,201.154 343.5,198.5C 349.048,197.726 353.715,195.393 357.5,191.5C 358.167,191.5 358.833,191.5 359.5,191.5C 364.737,191.218 369.07,189.218 372.5,185.5C 377.499,184.069 382.499,182.569 387.5,181C 388.71,179.961 389.71,178.794 390.5,177.5C 391.306,176.272 392.306,175.272 393.5,174.5C 393.833,174.5 394.167,174.5 394.5,174.5C 406.092,169.201 417.758,164.201 429.5,159.5 Z"/></g>
<g><path style="opacity:1" fill="#d4e5f0" d="M 138.5,169.5 C 188.668,169.52 239.001,169.52 289.5,169.5C 290.391,170.11 291.391,170.443 292.5,170.5C 295.324,174.36 296.158,178.693 295,183.5C 293.086,185.856 290.919,187.856 288.5,189.5C 238.832,189.667 189.166,189.5 139.5,189C 132.586,185.23 130.753,179.73 134,172.5C 135.271,171.117 136.771,170.117 138.5,169.5 Z"/></g>
<g><path style="opacity:1" fill="#deecef" d="M 143.5,170.5 C 191.834,170.333 240.168,170.5 288.5,171C 290.018,172.848 291.851,174.348 294,175.5C 294.167,176.5 294.333,177.5 294.5,178.5C 294.658,180.319 293.991,181.652 292.5,182.5C 290.28,173.423 289.447,173.423 290,182.5C 292.068,184.376 291.734,185.709 289,186.5C 287.941,186.37 287.108,185.87 286.5,185C 265.594,184.827 244.76,184.327 224,183.5C 215.591,185.006 207.091,186.006 198.5,186.5C 193.572,186.317 188.572,186.15 183.5,186C 186.167,185.667 188.833,185.333 191.5,185C 184.097,184.529 176.93,184.029 170,183.5C 169.333,186.167 168.667,186.167 168,183.5C 165.333,183.5 162.667,183.5 160,183.5C 159.333,186.167 158.667,186.167 158,183.5C 157.333,186.167 156.667,186.167 156,183.5C 155.333,186.167 154.667,186.167 154,183.5C 153.333,186.167 152.667,186.167 152,183.5C 151.667,184.167 151.333,184.833 151,185.5C 148.333,185.5 145.333,185.5 142,185.5C 137.811,185.846 135.645,184.013 135.5,180C 135.482,177.621 136.149,175.454 137.5,173.5C 139.975,173.036 141.975,172.036 143.5,170.5 Z"/></g>
<g><path style="opacity:1" fill="#ddebf3" d="M 143.5,173.5 C 191.5,173.5 239.5,173.5 287.5,173.5C 287.5,174.5 287.5,175.5 287.5,176.5C 271.85,177.379 257.683,177.379 245,176.5C 244.5,177 244,177.5 243.5,178C 258.293,178.729 272.46,178.563 286,177.5C 286.5,178.5 287,179.5 287.5,180.5C 238.699,181.239 190.366,181.905 142.5,182.5C 140.709,182.038 139.709,180.871 139.5,179C 140.55,176.971 141.884,175.137 143.5,173.5 Z"/></g>
<g><path style="opacity:1" fill="#1a5288" d="M 391.5,163.5 C 393.414,166.684 394.08,170.351 393.5,174.5C 392.306,175.272 391.306,176.272 390.5,177.5C 384.127,179.613 378.127,182.279 372.5,185.5C 369.342,185.983 366.342,186.983 363.5,188.5C 360.934,188.344 358.434,188.678 356,189.5C 351.746,186.591 350.913,187.257 353.5,191.5C 351.922,192.298 350.256,192.798 348.5,193C 348.833,193.333 349.167,193.667 349.5,194C 347.433,194.536 345.599,194.036 344,192.5C 342.89,194.037 341.39,194.703 339.5,194.5C 339.719,195.675 339.386,196.675 338.5,197.5C 336.018,198.897 333.352,199.731 330.5,200C 330.957,200.414 331.291,200.914 331.5,201.5C 328.367,202.716 325.7,204.383 323.5,206.5C 319.621,207.714 316.621,210.047 314.5,213.5C 313.167,213.5 312.5,214.167 312.5,215.5C 307.052,219.609 302.719,224.609 299.5,230.5C 298.778,230.082 298.278,229.416 298,228.5C 297.001,222.981 297.501,217.647 299.5,212.5C 305.463,206.036 312.463,201.37 320.5,198.5C 344.12,186.523 367.786,174.856 391.5,163.5 Z"/></g>
<g><path style="opacity:1" fill="#375f87" d="M 287.5,168.5 C 237.664,168.168 187.997,168.501 138.5,169.5C 136.771,170.117 135.271,171.117 134,172.5C 130.753,179.73 132.586,185.23 139.5,189C 189.166,189.5 238.832,189.667 288.5,189.5C 288.5,189.833 288.5,190.167 288.5,190.5C 260.5,190.5 232.5,190.5 204.5,190.5C 180.789,190.949 157.123,190.449 133.5,189C 132.151,188.228 131.318,187.061 131,185.5C 130.663,182.139 130.163,178.806 129.5,175.5C 130.414,172.592 132.081,170.259 134.5,168.5C 185.64,167.178 236.64,167.178 287.5,168.5 Z"/></g>
<g><path style="opacity:1" fill="#cf9f58" d="M 372.5,185.5 C 369.07,189.218 364.737,191.218 359.5,191.5C 360.59,190.143 361.924,189.143 363.5,188.5C 366.342,186.983 369.342,185.983 372.5,185.5 Z"/></g>
<g><path style="opacity:1" fill="#2a6597" d="M 320.5,198.5 C 312.463,201.37 305.463,206.036 299.5,212.5C 297.501,217.647 297.001,222.981 298,228.5C 298.278,229.416 298.778,230.082 299.5,230.5C 306.468,236.993 313.468,243.493 320.5,250C 316.25,255.074 311.917,259.907 307.5,264.5C 304.751,265.085 302.084,265.085 299.5,264.5C 298.417,265.365 298.251,266.365 299,267.5C 299.535,265.729 300.369,265.396 301.5,266.5C 300.333,268.167 299.167,269.833 298,271.5C 297.641,268.456 296.974,268.122 296,270.5C 295.517,269.552 295.351,268.552 295.5,267.5C 292.833,267.5 290.167,267.5 287.5,267.5C 287.5,268.833 287.5,270.167 287.5,271.5C 284.833,271.5 282.167,271.5 279.5,271.5C 279.47,265.768 277.97,260.435 275,255.5C 274,256.833 273,258.167 272,259.5C 270.642,256.643 268.475,254.643 265.5,253.5C 264.353,253.818 263.519,254.484 263,255.5C 261.91,253.172 261.41,250.839 261.5,248.5C 262.391,247.739 263.058,246.739 263.5,245.5C 263.282,240.731 262.282,236.398 260.5,232.5C 260.238,230.436 259.071,229.103 257,228.5C 257.617,226.905 257.284,225.572 256,224.5C 247.912,225.648 239.746,225.815 231.5,225C 231.678,222.045 231.678,218.879 231.5,215.5C 230.127,215.657 228.793,215.49 227.5,215C 224.879,210.594 223.379,210.76 223,215.5C 220.667,212.833 218.333,210.167 216,207.5C 215.667,208.833 215.333,210.167 215,211.5C 212.696,209.569 210.862,207.236 209.5,204.5C 206.242,203.583 202.909,203.249 199.5,203.5C 199.5,202.167 199.5,200.833 199.5,199.5C 196.376,199.868 194.043,198.702 192.5,196C 187.561,196.319 183.227,194.986 179.5,192C 188.17,191.709 195.67,191.876 202,192.5C 202.995,191.934 203.828,191.267 204.5,190.5C 232.5,190.5 260.5,190.5 288.5,190.5C 291.961,192.091 295.628,192.758 299.5,192.5C 298.786,190.126 297.452,188.126 295.5,186.5C 295.924,182.514 297.424,181.847 300,184.5C 300.473,186.779 301.473,188.779 303,190.5C 303.497,192.81 303.663,195.143 303.5,197.5C 307.322,197.351 309.655,195.351 310.5,191.5C 314.302,193.381 317.636,195.714 320.5,198.5 Z"/></g>
<g><path style="opacity:1" fill="#2c4f78" d="M 363.5,188.5 C 361.924,189.143 360.59,190.143 359.5,191.5C 358.833,191.5 358.167,191.5 357.5,191.5C 352.825,193.835 348.158,196.168 343.5,198.5C 340.088,199.075 337.088,200.408 334.5,202.5C 330.824,203.852 327.157,205.185 323.5,206.5C 325.7,204.383 328.367,202.716 331.5,201.5C 331.291,200.914 330.957,200.414 330.5,200C 333.352,199.731 336.018,198.897 338.5,197.5C 339.386,196.675 339.719,195.675 339.5,194.5C 341.39,194.703 342.89,194.037 344,192.5C 345.599,194.036 347.433,194.536 349.5,194C 349.167,193.667 348.833,193.333 348.5,193C 350.256,192.798 351.922,192.298 353.5,191.5C 350.913,187.257 351.746,186.591 356,189.5C 358.434,188.678 360.934,188.344 363.5,188.5 Z"/></g>
<g><path style="opacity:1" fill="#c89f58" d="M 357.5,191.5 C 353.715,195.393 349.048,197.726 343.5,198.5C 348.158,196.168 352.825,193.835 357.5,191.5 Z"/></g>
<g><path style="opacity:1" fill="#d09d5b" d="M 343.5,198.5 C 341.166,201.154 338.166,202.488 334.5,202.5C 337.088,200.408 340.088,199.075 343.5,198.5 Z"/></g>
<g><path style="opacity:1" fill="#ed8d23" d="M 403.5,176.5 C 405.379,176.393 405.712,176.893 404.5,178C 402.938,179.887 401.271,180.72 399.5,180.5C 400.665,181.584 401.998,182.417 403.5,183C 401.5,183 399.5,183 397.5,183C 397.167,183.333 396.833,183.667 396.5,184C 397.5,184.833 398.5,185.667 399.5,186.5C 395.584,187.125 392.251,188.791 389.5,191.5C 381.402,193.124 373.735,195.79 366.5,199.5C 364.41,197.894 362.076,197.394 359.5,198C 358.167,198.667 358.167,199.333 359.5,200C 361.909,201.707 364.575,202.54 367.5,202.5C 367.5,203.5 367.5,204.5 367.5,205.5C 366.167,205.5 364.833,205.5 363.5,205.5C 363.5,206.5 363.5,207.5 363.5,208.5C 364.833,208.5 366.167,208.5 367.5,208.5C 367.958,211.394 367.291,213.894 365.5,216C 366,216.5 366.5,217 367,217.5C 367.5,227.494 367.666,237.494 367.5,247.5C 366.127,247.343 364.793,247.51 363.5,248C 366.333,252.833 368.833,252.667 371,247.5C 372.707,249.909 373.54,252.575 373.5,255.5C 376.833,255.5 380.167,255.5 383.5,255.5C 383.5,258.167 383.5,260.833 383.5,263.5C 387.157,263.974 387.324,265.307 384,267.5C 383.333,268.5 383.333,269.5 384,270.5C 386.065,272.695 388.565,274.195 391.5,275C 390.333,275.5 389.5,276.333 389,277.5C 387.989,276.663 386.822,276.33 385.5,276.5C 383.399,274.891 381.065,274.391 378.5,275C 369.333,285.5 360.167,296 351,306.5C 346.62,311.383 341.786,315.716 336.5,319.5C 333.8,318.484 331.134,318.484 328.5,319.5C 327.614,318.675 327.281,317.675 327.5,316.5C 324.833,316.5 322.167,316.5 319.5,316.5C 317.856,310.393 314.189,305.893 308.5,303C 313.024,299.729 315.857,295.562 317,290.5C 316.167,289.667 315.333,288.833 314.5,288C 316.426,287.578 317.426,286.411 317.5,284.5C 322.5,278.5 327.5,272.5 332.5,266.5C 334.129,265.375 335.629,264.041 337,262.5C 341.561,256.528 345.727,250.362 349.5,244C 349.357,241.849 348.357,240.182 346.5,239C 341.945,236.275 337.278,233.775 332.5,231.5C 327.068,227.608 321.402,223.942 315.5,220.5C 314.526,218.257 314.192,215.924 314.5,213.5C 317.609,211.979 320.942,211.146 324.5,211C 350.428,199.067 376.761,187.567 403.5,176.5 Z"/></g>
<g><path style="opacity:1" fill="#07325c" d="M 76.5,88.5 C 77.3713,98.83 78.038,109.33 78.5,120C 77.4516,149.471 77.285,178.971 78,208.5C 79.292,214.662 79.9586,220.996 80,227.5C 80.3333,224.167 80.6667,220.833 81,217.5C 81.3333,222.167 81.6667,226.833 82,231.5C 82.4644,209.346 82.2978,187.346 81.5,165.5C 81.8988,163.803 82.3988,162.137 83,160.5C 83.1671,229.335 83.6671,298.001 84.5,366.5C 84.5,382.833 84.5,399.167 84.5,415.5C 81.7059,414.415 81.0392,412.582 82.5,410C 81.6718,385.572 81.1718,361.072 81,336.5C 80.3807,345.504 79.714,354.504 79,363.5C 78.6667,359.167 78.3333,354.833 78,350.5C 77.8326,312.998 77.3326,275.664 76.5,238.5C 76.5,188.5 76.5,138.5 76.5,88.5 Z"/></g>
<g><path style="opacity:1" fill="#dc8c3c" d="M 438.5,199.5 C 435.921,212.821 432.587,225.821 428.5,238.5C 428.328,233.467 428.161,228.467 428,223.5C 428.333,224.833 428.667,226.167 429,227.5C 430.741,225.459 430.908,223.292 429.5,221C 432.357,218.27 433.023,215.104 431.5,211.5C 432.325,210.614 433.325,210.281 434.5,210.5C 434.338,208.473 434.505,206.473 435,204.5C 436.626,203.045 437.792,201.378 438.5,199.5 Z"/></g>
<g><path style="opacity:1" fill="#1d5485" d="M 84.5,168.5 C 84.8333,168.5 85.1667,168.5 85.5,168.5C 85.7204,173.434 86.387,178.267 87.5,183C 86.7781,196.335 86.7781,209.835 87.5,223.5C 88.5,223.5 89.5,223.5 90.5,223.5C 90.8333,234.167 91.1667,234.167 91.5,223.5C 93.8568,223.337 96.1902,223.503 98.5,224C 99.3333,226.167 100.833,227.667 103,228.5C 103.658,230.108 103.158,231.275 101.5,232C 102.653,233.883 104.319,234.716 106.5,234.5C 106.353,237.943 108.02,239.943 111.5,240.5C 113.356,243.409 115.023,246.409 116.5,249.5C 120.079,250.114 122.746,251.948 124.5,255C 125.793,255.49 127.127,255.657 128.5,255.5C 128.784,258.254 129.451,260.92 130.5,263.5C 131.149,261.376 131.983,259.376 133,257.5C 133.117,260.942 134.283,263.942 136.5,266.5C 139.468,267.56 141.968,269.227 144,271.5C 146.319,269.064 148.819,268.897 151.5,271C 150.484,271.519 149.818,272.353 149.5,273.5C 150.108,276.145 150.608,278.812 151,281.5C 151.333,279.833 151.667,278.167 152,276.5C 154.094,278.527 156.427,280.194 159,281.5C 159.497,284.146 159.664,286.813 159.5,289.5C 162.167,289.5 164.833,289.5 167.5,289.5C 167.336,292.187 167.503,294.854 168,297.5C 170.386,298.763 172.219,300.597 173.5,303C 172.5,303.333 171.5,303.667 170.5,304C 171.333,306.167 172.833,307.667 175,308.5C 175.483,309.448 175.649,310.448 175.5,311.5C 176.552,311.351 177.552,311.517 178.5,312C 179.333,314.167 180.833,315.667 183,316.5C 183.333,318.167 183.667,319.833 184,321.5C 189.006,324.758 190.839,329.424 189.5,335.5C 190.5,335.5 191.5,335.5 192.5,335.5C 192.784,338.254 193.451,340.92 194.5,343.5C 195.149,341.376 195.983,339.376 197,337.5C 197.251,339.433 197.751,341.266 198.5,343C 201.482,343.498 204.482,343.665 207.5,343.5C 208.082,345.998 208.082,348.331 207.5,350.5C 191.134,362.354 173.801,372.687 155.5,381.5C 154.817,379.824 153.483,379.157 151.5,379.5C 151.238,378.022 151.571,376.689 152.5,375.5C 157.729,371.479 160.062,366.146 159.5,359.5C 157.5,359.5 155.5,359.5 153.5,359.5C 153.5,356.833 153.5,354.167 153.5,351.5C 150.136,352.211 147.803,351.044 146.5,348C 145.167,347.333 143.833,346.667 142.5,346C 140.904,342.952 138.737,340.452 136,338.5C 135.517,337.552 135.351,336.552 135.5,335.5C 134.5,335.5 133.5,335.5 132.5,335.5C 132.5,332.833 132.5,330.167 132.5,327.5C 130.833,327.5 129.167,327.5 127.5,327.5C 127.5,325.833 127.5,324.167 127.5,322.5C 124.833,322.5 122.167,322.5 119.5,322.5C 119.5,321.5 119.5,320.5 119.5,319.5C 130.167,318.833 130.167,318.167 119.5,317.5C 119.5,315.5 119.5,313.5 119.5,311.5C 118.448,311.649 117.448,311.483 116.5,311C 114.289,308.215 111.623,305.882 108.5,304C 105.183,303.502 101.85,303.335 98.5,303.5C 98.5,300.833 98.5,298.167 98.5,295.5C 96.8333,295.5 95.1667,295.5 93.5,295.5C 95.0542,288.779 92.8875,283.779 87,280.5C 86.6667,264.167 86.3333,247.833 86,231.5C 85.8307,243.674 85.3307,255.674 84.5,267.5C 84.5,234.5 84.5,201.5 84.5,168.5 Z"/></g>
<g><path style="opacity:1" fill="#a75d23" d="M 314.5,213.5 C 314.192,215.924 314.526,218.257 315.5,220.5C 321.402,223.942 327.068,227.608 332.5,231.5C 332.286,233.144 332.62,234.644 333.5,236C 337.279,236.678 340.445,237.844 343,239.5C 343.651,243.901 342.318,247.568 339,250.5C 338.51,251.793 338.343,253.127 338.5,254.5C 337.5,254.5 336.5,254.5 335.5,254.5C 336.48,251.884 337.98,249.551 340,247.5C 340.667,245.833 340.667,244.167 340,242.5C 333.098,236.966 325.932,231.799 318.5,227C 314.015,224.376 312.015,220.542 312.5,215.5C 312.5,214.167 313.167,213.5 314.5,213.5 Z"/></g>
<g><path style="opacity:1" fill="#194f80" d="M 155.5,381.5 C 150.98,384.929 145.98,387.595 140.5,389.5C 140.5,388.5 140.5,387.5 140.5,386.5C 137.23,386.302 135.23,387.802 134.5,391C 133.552,391.483 132.552,391.649 131.5,391.5C 130.919,395.247 129.919,398.914 128.5,402.5C 127.5,402.167 126.833,401.5 126.5,400.5C 127.407,397.579 127.74,394.579 127.5,391.5C 124.482,391.665 121.482,391.498 118.5,391C 116.451,388.407 114.285,385.907 112,383.5C 111.621,388.24 110.121,388.406 107.5,384C 102.845,383.501 98.1785,383.334 93.5,383.5C 93.6633,385.857 93.4966,388.19 93,390.5C 92.0853,389.672 91.4186,388.672 91,387.5C 90.6667,383.5 90.3333,379.5 90,375.5C 89.6667,378.167 89.3333,380.833 89,383.5C 88.6667,383.167 88.3333,382.833 88,382.5C 87.275,374.657 87.775,366.991 89.5,359.5C 87.793,346.312 86.4597,332.979 85.5,319.5C 86.3997,310.175 86.5664,300.842 86,291.5C 85.7679,290.263 85.2679,289.263 84.5,288.5C 84.5,281.5 84.5,274.5 84.5,267.5C 85.3307,255.674 85.8307,243.674 86,231.5C 86.3333,247.833 86.6667,264.167 87,280.5C 92.8875,283.779 95.0542,288.779 93.5,295.5C 95.1667,295.5 96.8333,295.5 98.5,295.5C 98.5,298.167 98.5,300.833 98.5,303.5C 101.85,303.335 105.183,303.502 108.5,304C 111.623,305.882 114.289,308.215 116.5,311C 117.448,311.483 118.448,311.649 119.5,311.5C 119.5,313.5 119.5,315.5 119.5,317.5C 130.167,318.167 130.167,318.833 119.5,319.5C 119.5,320.5 119.5,321.5 119.5,322.5C 122.167,322.5 124.833,322.5 127.5,322.5C 127.5,324.167 127.5,325.833 127.5,327.5C 129.167,327.5 130.833,327.5 132.5,327.5C 132.5,330.167 132.5,332.833 132.5,335.5C 133.5,335.5 134.5,335.5 135.5,335.5C 135.351,336.552 135.517,337.552 136,338.5C 138.737,340.452 140.904,342.952 142.5,346C 143.833,346.667 145.167,347.333 146.5,348C 147.803,351.044 150.136,352.211 153.5,351.5C 153.5,354.167 153.5,356.833 153.5,359.5C 155.5,359.5 157.5,359.5 159.5,359.5C 160.062,366.146 157.729,371.479 152.5,375.5C 151.571,376.689 151.238,378.022 151.5,379.5C 153.483,379.157 154.817,379.824 155.5,381.5 Z"/></g>
<g><path style="opacity:1" fill="#0d3564" d="M 312.5,215.5 C 312.015,220.542 314.015,224.376 318.5,227C 325.932,231.799 333.098,236.966 340,242.5C 340.667,244.167 340.667,245.833 340,247.5C 337.98,249.551 336.48,251.884 335.5,254.5C 334.5,254.833 333.833,255.5 333.5,256.5C 331.413,257.585 330.08,259.251 329.5,261.5C 327.413,262.585 326.08,264.251 325.5,266.5C 321.277,270.602 317.277,274.935 313.5,279.5C 310.167,282.167 307.167,285.167 304.5,288.5C 298.452,293.881 292.785,299.548 287.5,305.5C 286.167,305.5 285.5,306.167 285.5,307.5C 279.581,311.083 274.248,315.416 269.5,320.5C 268.5,320.833 267.833,321.5 267.5,322.5C 262.929,324.738 258.929,327.738 255.5,331.5C 246.018,337.989 236.685,344.655 227.5,351.5C 225.034,352.298 223.034,353.631 221.5,355.5C 216.127,358.518 210.794,361.518 205.5,364.5C 203.738,364.643 202.071,364.309 200.5,363.5C 198.827,365.086 196.827,365.753 194.5,365.5C 194.5,367.167 194.5,368.833 194.5,370.5C 190.089,370.064 185.756,370.064 181.5,370.5C 183.555,371.187 185.221,372.354 186.5,374C 184.485,374.424 182.651,375.258 181,376.5C 180.228,376.355 179.561,376.022 179,375.5C 176.5,377.333 174.333,379.5 172.5,382C 169.472,383.14 167.305,382.306 166,379.5C 165.82,381.488 165.986,383.488 166.5,385.5C 161.798,388.182 157.131,390.849 152.5,393.5C 144.016,395.301 141.016,400.301 143.5,408.5C 136.224,406.663 133.724,401.996 136,394.5C 137.193,392.503 138.693,390.836 140.5,389.5C 145.98,387.595 150.98,384.929 155.5,381.5C 173.801,372.687 191.134,362.354 207.5,350.5C 224.981,340.013 241.314,328.013 256.5,314.5C 275.484,299.849 292.484,283.183 307.5,264.5C 311.917,259.907 316.25,255.074 320.5,250C 313.468,243.493 306.468,236.993 299.5,230.5C 302.719,224.609 307.052,219.609 312.5,215.5 Z"/></g>
<g><path style="opacity:1" fill="#de7d1e" d="M 444.5,160.5 C 445.167,160.833 445.833,161.167 446.5,161.5C 444.805,169.1 443.472,176.766 442.5,184.5C 441.924,189.809 440.591,194.809 438.5,199.5C 437.792,201.378 436.626,203.045 435,204.5C 434.505,206.473 434.338,208.473 434.5,210.5C 433.325,210.281 432.325,210.614 431.5,211.5C 433.023,215.104 432.357,218.27 429.5,221C 430.908,223.292 430.741,225.459 429,227.5C 428.667,226.167 428.333,224.833 428,223.5C 428.161,228.467 428.328,233.467 428.5,238.5C 428.611,239.117 428.944,239.617 429.5,240C 428.132,242.804 427.132,245.638 426.5,248.5C 425.034,249.347 424.2,250.68 424,252.5C 422.933,257.136 422.1,261.802 421.5,266.5C 421.595,269.697 420.928,272.697 419.5,275.5C 417.812,278.223 416.312,281.223 415,284.5C 413.857,288.794 413.023,293.127 412.5,297.5C 410.833,297.5 409.167,297.5 407.5,297.5C 407.5,296.5 407.5,295.5 407.5,294.5C 406.209,294.737 405.209,294.404 404.5,293.5C 405.833,293.5 407.167,293.5 408.5,293.5C 420.153,249.693 431.319,205.693 442,161.5C 442.671,160.748 443.504,160.414 444.5,160.5 Z"/></g>
<g><path style="opacity:1" fill="#2c5980" d="M 141.5,226.5 C 141.918,227.222 142.584,227.722 143.5,228C 180.833,228.333 218.167,228.667 255.5,229C 257.196,230.176 258.862,231.343 260.5,232.5C 262.282,236.398 263.282,240.731 263.5,245.5C 263.058,246.739 262.391,247.739 261.5,248.5C 259.641,249.594 257.641,250.427 255.5,251C 217.501,251.5 179.501,251.667 141.5,251.5C 138.635,251.945 136.135,251.278 134,249.5C 130.188,245.096 129.021,240.096 130.5,234.5C 131.354,233.478 132.354,232.645 133.5,232C 133.167,231.667 132.833,231.333 132.5,231C 135.649,229.492 138.649,227.992 141.5,226.5 Z"/></g>
<g><path style="opacity:1" fill="#d4e4ed" d="M 139.5,229.5 C 177.501,229.333 215.501,229.5 253.5,230C 258.55,231.434 260.883,234.767 260.5,240C 260.802,244.732 258.802,248.065 254.5,250C 215.833,250.667 177.167,250.667 138.5,250C 132.069,245.353 130.902,239.52 135,232.5C 136.652,231.601 138.152,230.601 139.5,229.5 Z"/></g>
<g><path style="opacity:1" fill="#215a8c" d="M 86.5,115.5 C 86.4263,135.181 86.9263,154.847 88,174.5C 88.7504,175.126 89.5838,175.626 90.5,176C 89.376,176.249 88.376,176.749 87.5,177.5C 90.1667,177.833 92.8333,178.167 95.5,178.5C 94.8333,179.167 94.1667,179.833 93.5,180.5C 93.8333,180.833 94.1667,181.167 94.5,181.5C 96.1667,180.5 97.8333,179.5 99.5,178.5C 101.98,179.307 103.313,180.974 103.5,183.5C 104.5,183.5 105.5,183.5 106.5,183.5C 107.635,188.794 109.135,188.794 111,183.5C 111.333,184.833 111.667,186.167 112,187.5C 114.304,189.431 116.138,191.764 117.5,194.5C 120.076,195.282 122.076,196.782 123.5,199C 124.793,199.49 126.127,199.657 127.5,199.5C 127.238,200.978 127.571,202.311 128.5,203.5C 130.918,204.457 133.084,205.791 135,207.5C 135.805,212.476 138.639,215.143 143.5,215.5C 143.813,218.247 143.48,220.914 142.5,223.5C 140.481,224.133 140.147,225.133 141.5,226.5C 138.649,227.992 135.649,229.492 132.5,231C 132.833,231.333 133.167,231.667 133.5,232C 132.354,232.645 131.354,233.478 130.5,234.5C 129.021,240.096 130.188,245.096 134,249.5C 136.135,251.278 138.635,251.945 141.5,251.5C 141.369,252.239 141.536,252.906 142,253.5C 151.089,252.35 160.255,252.183 169.5,253C 168.833,253.333 168.167,253.667 167.5,254C 170.471,254.794 173.471,255.461 176.5,256C 175.007,257.156 175.174,257.99 177,258.5C 183.792,261.93 190.959,264.43 198.5,266C 196.5,267 194.5,268 192.5,269C 194.355,269.422 196.189,269.922 198,270.5C 199.703,268.351 201.536,268.518 203.5,271C 202.5,271.333 201.5,271.667 200.5,272C 202.549,274.593 204.715,277.093 207,279.5C 207.333,278.167 207.667,276.833 208,275.5C 210.333,278.167 212.667,280.833 215,283.5C 215.333,282.167 215.667,280.833 216,279.5C 223.667,287.5 231.333,295.5 239,303.5C 239.379,298.76 240.879,298.594 243.5,303C 242.376,303.249 241.376,303.749 240.5,304.5C 242.605,307.027 244.939,309.36 247.5,311.5C 250.814,306.131 252.814,306.798 253.5,313.5C 254.192,312.975 254.692,312.308 255,311.5C 255.232,312.737 255.732,313.737 256.5,314.5C 241.314,328.013 224.981,340.013 207.5,350.5C 208.082,348.331 208.082,345.998 207.5,343.5C 204.482,343.665 201.482,343.498 198.5,343C 197.751,341.266 197.251,339.433 197,337.5C 195.983,339.376 195.149,341.376 194.5,343.5C 193.451,340.92 192.784,338.254 192.5,335.5C 191.5,335.5 190.5,335.5 189.5,335.5C 190.839,329.424 189.006,324.758 184,321.5C 183.667,319.833 183.333,318.167 183,316.5C 180.833,315.667 179.333,314.167 178.5,312C 177.552,311.517 176.552,311.351 175.5,311.5C 175.649,310.448 175.483,309.448 175,308.5C 172.833,307.667 171.333,306.167 170.5,304C 171.5,303.667 172.5,303.333 173.5,303C 172.219,300.597 170.386,298.763 168,297.5C 167.503,294.854 167.336,292.187 167.5,289.5C 164.833,289.5 162.167,289.5 159.5,289.5C 159.664,286.813 159.497,284.146 159,281.5C 156.427,280.194 154.094,278.527 152,276.5C 151.667,278.167 151.333,279.833 151,281.5C 150.608,278.812 150.108,276.145 149.5,273.5C 149.818,272.353 150.484,271.519 151.5,271C 148.819,268.897 146.319,269.064 144,271.5C 141.968,269.227 139.468,267.56 136.5,266.5C 134.283,263.942 133.117,260.942 133,257.5C 131.983,259.376 131.149,261.376 130.5,263.5C 129.451,260.92 128.784,258.254 128.5,255.5C 127.127,255.657 125.793,255.49 124.5,255C 122.746,251.948 120.079,250.114 116.5,249.5C 115.023,246.409 113.356,243.409 111.5,240.5C 108.02,239.943 106.353,237.943 106.5,234.5C 104.319,234.716 102.653,233.883 101.5,232C 103.158,231.275 103.658,230.108 103,228.5C 100.833,227.667 99.3333,226.167 98.5,224C 96.1902,223.503 93.8568,223.337 91.5,223.5C 91.1667,234.167 90.8333,234.167 90.5,223.5C 89.5,223.5 88.5,223.5 87.5,223.5C 86.7781,209.835 86.7781,196.335 87.5,183C 86.387,178.267 85.7204,173.434 85.5,168.5C 85.1656,149.452 85.4989,131.786 86.5,115.5 Z"/></g>
<g><path style="opacity:1" fill="#c36716" d="M 332.5,231.5 C 337.278,233.775 341.945,236.275 346.5,239C 348.357,240.182 349.357,241.849 349.5,244C 345.727,250.362 341.561,256.528 337,262.5C 335.629,264.041 334.129,265.375 332.5,266.5C 330.5,267.833 328.5,267.833 326.5,266.5C 327.925,265.078 328.925,263.411 329.5,261.5C 331.587,260.415 332.92,258.749 333.5,256.5C 333.833,255.5 334.5,254.833 335.5,254.5C 336.5,254.5 337.5,254.5 338.5,254.5C 338.343,253.127 338.51,251.793 339,250.5C 342.318,247.568 343.651,243.901 343,239.5C 340.445,237.844 337.279,236.678 333.5,236C 332.62,234.644 332.286,233.144 332.5,231.5 Z"/></g>
<g><path style="opacity:0.786" fill="#283f5c" d="M 76.5,67.5 C 76.5,74.5 76.5,81.5 76.5,88.5C 76.5,138.5 76.5,188.5 76.5,238.5C 76.1667,298.504 76.5,358.504 77.5,418.5C 81.7364,423.361 84.0698,429.028 84.5,435.5C 81.1423,432.121 78.809,428.121 77.5,423.5C 77.7373,422.209 77.404,421.209 76.5,420.5C 75.168,302.736 75.168,185.069 76.5,67.5 Z"/></g>
<g><path style="opacity:1" fill="#255f91" d="M 261.5,248.5 C 261.41,250.839 261.91,253.172 263,255.5C 263.519,254.484 264.353,253.818 265.5,253.5C 268.475,254.643 270.642,256.643 272,259.5C 273,258.167 274,256.833 275,255.5C 277.97,260.435 279.47,265.768 279.5,271.5C 282.167,271.5 284.833,271.5 287.5,271.5C 287.5,270.167 287.5,268.833 287.5,267.5C 290.167,267.5 292.833,267.5 295.5,267.5C 295.351,268.552 295.517,269.552 296,270.5C 296.974,268.122 297.641,268.456 298,271.5C 299.167,269.833 300.333,268.167 301.5,266.5C 300.369,265.396 299.535,265.729 299,267.5C 298.251,266.365 298.417,265.365 299.5,264.5C 302.084,265.085 304.751,265.085 307.5,264.5C 292.484,283.183 275.484,299.849 256.5,314.5C 255.732,313.737 255.232,312.737 255,311.5C 254.692,312.308 254.192,312.975 253.5,313.5C 252.814,306.798 250.814,306.131 247.5,311.5C 244.939,309.36 242.605,307.027 240.5,304.5C 241.376,303.749 242.376,303.249 243.5,303C 240.879,298.594 239.379,298.76 239,303.5C 231.333,295.5 223.667,287.5 216,279.5C 215.667,280.833 215.333,282.167 215,283.5C 212.667,280.833 210.333,278.167 208,275.5C 207.667,276.833 207.333,278.167 207,279.5C 204.715,277.093 202.549,274.593 200.5,272C 201.5,271.667 202.5,271.333 203.5,271C 201.536,268.518 199.703,268.351 198,270.5C 196.189,269.922 194.355,269.422 192.5,269C 194.5,268 196.5,267 198.5,266C 190.959,264.43 183.792,261.93 177,258.5C 175.174,257.99 175.007,257.156 176.5,256C 173.471,255.461 170.471,254.794 167.5,254C 168.167,253.667 168.833,253.333 169.5,253C 160.255,252.183 151.089,252.35 142,253.5C 141.536,252.906 141.369,252.239 141.5,251.5C 179.501,251.667 217.501,251.5 255.5,251C 257.641,250.427 259.641,249.594 261.5,248.5 Z"/></g>
<g><path style="opacity:0.91" fill="#e2aa6b" d="M 426.5,248.5 C 425.604,254.836 423.937,260.836 421.5,266.5C 422.1,261.802 422.933,257.136 424,252.5C 424.2,250.68 425.034,249.347 426.5,248.5 Z"/></g>
<g><path style="opacity:1" fill="#8a5f42" d="M 333.5,256.5 C 332.92,258.749 331.587,260.415 329.5,261.5C 330.08,259.251 331.413,257.585 333.5,256.5 Z"/></g>
<g><path style="opacity:1" fill="#875d40" d="M 329.5,261.5 C 328.925,263.411 327.925,265.078 326.5,266.5C 326.167,266.5 325.833,266.5 325.5,266.5C 326.08,264.251 327.413,262.585 329.5,261.5 Z"/></g>
<g><path style="opacity:1" fill="#b37139" d="M 325.5,266.5 C 325.047,270.027 323.547,273.027 321,275.5C 318.095,276.574 315.595,278.241 313.5,280.5C 313.5,280.167 313.5,279.833 313.5,279.5C 317.277,274.935 321.277,270.602 325.5,266.5 Z"/></g>
<g><path style="opacity:1" fill="#91664d" d="M 313.5,279.5 C 313.5,279.833 313.5,280.167 313.5,280.5C 311.1,283.903 308.1,286.57 304.5,288.5C 307.167,285.167 310.167,282.167 313.5,279.5 Z"/></g>
<g><path style="opacity:0.992" fill="#db9554" d="M 419.5,275.5 C 418.075,283.227 415.741,290.561 412.5,297.5C 413.023,293.127 413.857,288.794 415,284.5C 416.312,281.223 417.812,278.223 419.5,275.5 Z"/></g>
<g><path style="opacity:1" fill="#d3751b" d="M 325.5,266.5 C 325.833,266.5 326.167,266.5 326.5,266.5C 328.5,267.833 330.5,267.833 332.5,266.5C 327.5,272.5 322.5,278.5 317.5,284.5C 314.676,284.989 313.343,286.656 313.5,289.5C 302.291,298.367 291.624,308.033 281.5,318.5C 276.575,320.761 272.575,324.094 269.5,328.5C 268.583,329.127 267.583,329.461 266.5,329.5C 264.883,328.962 263.216,328.629 261.5,328.5C 263.806,326.861 265.806,324.861 267.5,322.5C 267.833,321.5 268.5,320.833 269.5,320.5C 272.813,319.664 275.48,317.831 277.5,315C 279.436,314.187 281.436,313.687 283.5,313.5C 283.253,311.142 283.919,309.142 285.5,307.5C 285.5,306.167 286.167,305.5 287.5,305.5C 294.188,300.812 299.854,295.146 304.5,288.5C 308.1,286.57 311.1,283.903 313.5,280.5C 315.595,278.241 318.095,276.574 321,275.5C 323.547,273.027 325.047,270.027 325.5,266.5 Z"/></g>
<g><path style="opacity:1" fill="#e8871f" d="M 317.5,284.5 C 317.426,286.411 316.426,287.578 314.5,288C 315.333,288.833 316.167,289.667 317,290.5C 315.857,295.562 313.024,299.729 308.5,303C 314.189,305.893 317.856,310.393 319.5,316.5C 322.167,316.5 324.833,316.5 327.5,316.5C 327.281,317.675 327.614,318.675 328.5,319.5C 331.134,318.484 333.8,318.484 336.5,319.5C 318.176,338.144 297.509,353.811 274.5,366.5C 271.045,365.872 269.878,363.872 271,360.5C 272.337,361.765 273.837,362.265 275.5,362C 275.167,361.667 274.833,361.333 274.5,361C 276.619,358.782 276.952,356.282 275.5,353.5C 273.414,355.023 271.748,354.69 270.5,352.5C 272.187,349.097 271.52,346.264 268.5,344C 269.624,343.751 270.624,343.251 271.5,342.5C 269.005,340.836 267.005,338.67 265.5,336C 265.198,333.959 265.532,331.792 266.5,329.5C 267.583,329.461 268.583,329.127 269.5,328.5C 272.575,324.094 276.575,320.761 281.5,318.5C 291.624,308.033 302.291,298.367 313.5,289.5C 313.343,286.656 314.676,284.989 317.5,284.5 Z"/></g>
<g><path style="opacity:1" fill="#083463" d="M 393.5,292.5 C 393.667,303.838 393.5,315.172 393,326.5C 389.5,323.667 386,320.833 382.5,318C 379.97,316.578 377.303,316.245 374.5,317C 369.305,321.366 364.305,325.866 359.5,330.5C 358.81,326.075 359.81,322.241 362.5,319C 361.941,318.275 361.608,317.442 361.5,316.5C 362.833,314.833 364.167,313.167 365.5,311.5C 365.244,310.311 364.911,309.144 364.5,308C 366.163,306.505 367.163,304.672 367.5,302.5C 371.558,296.599 376.225,291.099 381.5,286C 382.833,285.333 384.167,285.333 385.5,286C 388.485,287.842 391.152,290.009 393.5,292.5 Z"/></g>
<g><path style="opacity:1" fill="#a86f45" d="M 304.5,288.5 C 299.854,295.146 294.188,300.812 287.5,305.5C 292.785,299.548 298.452,293.881 304.5,288.5 Z"/></g>
<g><path style="opacity:1" fill="#c07b35" d="M 285.5,307.5 C 283.919,309.142 283.253,311.142 283.5,313.5C 281.436,313.687 279.436,314.187 277.5,315C 275.48,317.831 272.813,319.664 269.5,320.5C 274.248,315.416 279.581,311.083 285.5,307.5 Z"/></g>
<g><path style="opacity:1" fill="#372d34" d="M 363.5,306.5 C 360.833,311.167 357.167,314.833 352.5,317.5C 355.833,313.5 359.5,309.833 363.5,306.5 Z"/></g>
<g><path style="opacity:1" fill="#b1794a" d="M 267.5,322.5 C 265.806,324.861 263.806,326.861 261.5,328.5C 259.784,330.025 257.784,331.025 255.5,331.5C 258.929,327.738 262.929,324.738 267.5,322.5 Z"/></g>
<g><path style="opacity:1" fill="#0c2f59" d="M 339.5,409.5 C 339.167,409.5 338.833,409.5 338.5,409.5C 338.833,391.821 338.5,374.154 337.5,356.5C 326.173,363.972 315.173,371.638 304.5,379.5C 288.941,388.44 273.607,397.606 258.5,407C 245.062,408.111 231.729,408.944 218.5,409.5C 217.5,409.5 216.5,409.5 215.5,409.5C 212.733,408.907 210.899,407.907 210,406.5C 206.979,409.476 203.479,410.143 199.5,408.5C 200.718,407.839 202.051,407.172 203.5,406.5C 203.291,405.914 202.957,405.414 202.5,405C 204.653,404.901 206.319,404.067 207.5,402.5C 207.5,402.167 207.5,401.833 207.5,401.5C 208.167,401.5 208.833,401.5 209.5,401.5C 216.543,399.932 223.209,397.599 229.5,394.5C 231.786,394.405 233.786,393.738 235.5,392.5C 239.357,391.825 243.023,390.658 246.5,389C 247.056,388.617 247.389,388.117 247.5,387.5C 247.833,387.5 248.167,387.5 248.5,387.5C 256.397,384.259 264.063,380.592 271.5,376.5C 279.439,371.908 287.439,367.408 295.5,363C 303.066,357.586 310.732,352.419 318.5,347.5C 321.16,348.347 323.826,348.847 326.5,349C 326.833,348.667 327.167,348.333 327.5,348C 326.241,347.077 324.908,346.243 323.5,345.5C 325.627,343.124 328.293,342.124 331.5,342.5C 332.429,337.07 335.596,333.737 341,332.5C 342.897,332.896 344.397,333.896 345.5,335.5C 345.833,338.333 346.167,341.167 346.5,344C 345.787,362.493 345.287,380.993 345,399.5C 343.953,403.462 342.12,406.796 339.5,409.5 Z"/></g>
<g><path style="opacity:1" fill="#07274d" d="M 367.5,302.5 C 367.163,304.672 366.163,306.505 364.5,308C 364.911,309.144 365.244,310.311 365.5,311.5C 364.167,313.167 362.833,314.833 361.5,316.5C 361.608,317.442 361.941,318.275 362.5,319C 359.81,322.241 358.81,326.075 359.5,330.5C 359.814,354.878 359.481,379.212 358.5,403.5C 357.164,405.307 355.497,406.807 353.5,408C 348.915,409.225 344.248,409.725 339.5,409.5C 342.12,406.796 343.953,403.462 345,399.5C 345.287,380.993 345.787,362.493 346.5,344C 346.167,341.167 345.833,338.333 345.5,335.5C 344.397,333.896 342.897,332.896 341,332.5C 335.596,333.737 332.429,337.07 331.5,342.5C 328.293,342.124 325.627,343.124 323.5,345.5C 324.908,346.243 326.241,347.077 327.5,348C 327.167,348.333 326.833,348.667 326.5,349C 323.826,348.847 321.16,348.347 318.5,347.5C 330.073,337.937 341.406,327.937 352.5,317.5C 357.167,314.833 360.833,311.167 363.5,306.5C 364.5,304.833 365.833,303.5 367.5,302.5 Z"/></g>
<g><path style="opacity:1" fill="#e1801e" d="M 261.5,328.5 C 263.216,328.629 264.883,328.962 266.5,329.5C 265.532,331.792 265.198,333.959 265.5,336C 267.005,338.67 269.005,340.836 271.5,342.5C 270.624,343.251 269.624,343.751 268.5,344C 271.52,346.264 272.187,349.097 270.5,352.5C 271.748,354.69 273.414,355.023 275.5,353.5C 276.952,356.282 276.619,358.782 274.5,361C 274.833,361.333 275.167,361.667 275.5,362C 273.837,362.265 272.337,361.765 271,360.5C 269.878,363.872 271.045,365.872 274.5,366.5C 241.529,386.936 205.863,400.269 167.5,406.5C 160.995,408.41 154.328,408.91 147.5,408C 141.885,403.671 142.218,399.838 148.5,396.5C 158.239,394.503 167.239,390.67 175.5,385C 177.878,384.489 180.212,383.822 182.5,383C 186.167,380.667 189.833,378.333 193.5,376C 193.167,375.667 192.833,375.333 192.5,375C 195.079,373.924 196.746,372.091 197.5,369.5C 197.833,369.5 198.167,369.5 198.5,369.5C 201.173,368.297 203.84,368.297 206.5,369.5C 206.833,368.167 207.167,366.833 207.5,365.5C 209.296,364.859 210.796,363.859 212,362.5C 212.915,363.328 213.581,364.328 214,365.5C 214.9,364.23 216.066,363.23 217.5,362.5C 216.603,362.331 215.603,361.998 214.5,361.5C 217.228,359.759 219.561,357.759 221.5,355.5C 224.198,355.155 226.198,353.822 227.5,351.5C 236.685,344.655 246.018,337.989 255.5,331.5C 257.784,331.025 259.784,330.025 261.5,328.5 Z"/></g>
<g><path style="opacity:0.996" fill="#ae844b" d="M 227.5,351.5 C 226.198,353.822 224.198,355.155 221.5,355.5C 223.034,353.631 225.034,352.298 227.5,351.5 Z"/></g>
<g><path style="opacity:1" fill="#2a6192" d="M 393.5,292.5 C 394.338,292.842 394.672,293.508 394.5,294.5C 394.667,334.835 394.5,375.168 394,415.5C 393.276,421.524 391.109,426.858 387.5,431.5C 386.791,430.596 385.791,430.263 384.5,430.5C 383.833,428.181 383.666,425.847 384,423.5C 385.154,424.743 386.488,425.743 388,426.5C 389.071,424.854 389.904,423.188 390.5,421.5C 390.61,419.626 389.944,418.126 388.5,417C 389.167,416.333 389.833,415.667 390.5,415C 389.685,407.913 389.185,400.747 389,393.5C 388.5,400.826 388.334,408.159 388.5,415.5C 387.5,415.5 386.5,415.5 385.5,415.5C 385.799,417.604 385.466,419.604 384.5,421.5C 383.526,419.257 383.192,416.924 383.5,414.5C 380.428,414.817 377.428,414.484 374.5,413.5C 372.017,407.04 369.85,407.374 368,414.5C 368.053,408.467 366.719,402.8 364,397.5C 363.667,392.5 363.333,387.5 363,382.5C 362.667,389.167 362.333,395.833 362,402.5C 360.989,403.337 359.822,403.67 358.5,403.5C 359.481,379.212 359.814,354.878 359.5,330.5C 364.305,325.866 369.305,321.366 374.5,317C 377.303,316.245 379.97,316.578 382.5,318C 386,320.833 389.5,323.667 393,326.5C 393.5,315.172 393.667,303.838 393.5,292.5 Z"/></g>
<g><path style="opacity:1" fill="#d38637" d="M 221.5,355.5 C 219.561,357.759 217.228,359.759 214.5,361.5C 215.603,361.998 216.603,362.331 217.5,362.5C 216.066,363.23 214.9,364.23 214,365.5C 213.581,364.328 212.915,363.328 212,362.5C 210.796,363.859 209.296,364.859 207.5,365.5C 207.167,366.833 206.833,368.167 206.5,369.5C 203.84,368.297 201.173,368.297 198.5,369.5C 200.657,367.588 202.991,365.921 205.5,364.5C 210.794,361.518 216.127,358.518 221.5,355.5 Z"/></g>
<g><path style="opacity:1" fill="#1d3050" d="M 205.5,364.5 C 202.991,365.921 200.657,367.588 198.5,369.5C 198.167,369.5 197.833,369.5 197.5,369.5C 187.259,375.12 176.925,380.453 166.5,385.5C 165.986,383.488 165.82,381.488 166,379.5C 167.305,382.306 169.472,383.14 172.5,382C 174.333,379.5 176.5,377.333 179,375.5C 179.561,376.022 180.228,376.355 181,376.5C 182.651,375.258 184.485,374.424 186.5,374C 185.221,372.354 183.555,371.187 181.5,370.5C 185.756,370.064 190.089,370.064 194.5,370.5C 194.5,368.833 194.5,367.167 194.5,365.5C 196.827,365.753 198.827,365.086 200.5,363.5C 202.071,364.309 203.738,364.643 205.5,364.5 Z"/></g>
<g><path style="opacity:1" fill="#b1662d" d="M 271.5,376.5 C 264.063,380.592 256.397,384.259 248.5,387.5C 250.807,386.023 252.64,384.023 254,381.5C 257.262,382.841 257.762,382.508 255.5,380.5C 255.833,380.167 256.167,379.833 256.5,379.5C 258.098,380.485 259.765,380.651 261.5,380C 260.833,379.667 260.167,379.333 259.5,379C 263.454,377.846 267.454,377.013 271.5,376.5 Z"/></g>
<g><path style="opacity:1" fill="#174b7a" d="M 84.5,288.5 C 85.2679,289.263 85.7679,290.263 86,291.5C 86.5664,300.842 86.3997,310.175 85.5,319.5C 86.4597,332.979 87.793,346.312 89.5,359.5C 87.775,366.991 87.275,374.657 88,382.5C 88.3333,382.833 88.6667,383.167 89,383.5C 89.3333,380.833 89.6667,378.167 90,375.5C 90.3333,379.5 90.6667,383.5 91,387.5C 91.4186,388.672 92.0853,389.672 93,390.5C 93.4966,388.19 93.6633,385.857 93.5,383.5C 98.1785,383.334 102.845,383.501 107.5,384C 110.121,388.406 111.621,388.24 112,383.5C 114.285,385.907 116.451,388.407 118.5,391C 121.482,391.498 124.482,391.665 127.5,391.5C 127.74,394.579 127.407,397.579 126.5,400.5C 126.833,401.5 127.5,402.167 128.5,402.5C 129.919,398.914 130.919,395.247 131.5,391.5C 132.552,391.649 133.552,391.483 134.5,391C 135.23,387.802 137.23,386.302 140.5,386.5C 140.5,387.5 140.5,388.5 140.5,389.5C 138.693,390.836 137.193,392.503 136,394.5C 133.724,401.996 136.224,406.663 143.5,408.5C 154.545,419.854 166.211,430.521 178.5,440.5C 156.177,441.5 133.843,441.833 111.5,441.5C 110.5,441.5 109.5,441.5 108.5,441.5C 95.3657,437.594 87.3657,428.928 84.5,415.5C 84.5,399.167 84.5,382.833 84.5,366.5C 84.5,340.5 84.5,314.5 84.5,288.5 Z"/></g>
<g><path style="opacity:1" fill="#c16719" d="M 385.5,276.5 C 390.888,283.221 397.222,288.888 404.5,293.5C 405.209,294.404 406.209,294.737 407.5,294.5C 407.5,295.5 407.5,296.5 407.5,297.5C 409.167,297.5 410.833,297.5 412.5,297.5C 410.713,299.141 408.546,300.141 406,300.5C 401.621,299.395 397.788,297.395 394.5,294.5C 394.672,293.508 394.338,292.842 393.5,292.5C 391.152,290.009 388.485,287.842 385.5,286C 384.167,285.333 382.833,285.333 381.5,286C 376.225,291.099 371.558,296.599 367.5,302.5C 365.833,303.5 364.5,304.833 363.5,306.5C 359.5,309.833 355.833,313.5 352.5,317.5C 341.406,327.937 330.073,337.937 318.5,347.5C 310.732,352.419 303.066,357.586 295.5,363C 287.439,367.408 279.439,371.908 271.5,376.5C 267.454,377.013 263.454,377.846 259.5,379C 260.167,379.333 260.833,379.667 261.5,380C 259.765,380.651 258.098,380.485 256.5,379.5C 256.167,379.833 255.833,380.167 255.5,380.5C 257.762,382.508 257.262,382.841 254,381.5C 252.64,384.023 250.807,386.023 248.5,387.5C 248.167,387.5 247.833,387.5 247.5,387.5C 242.997,388.432 238.997,390.098 235.5,392.5C 233.786,393.738 231.786,394.405 229.5,394.5C 223.151,396.038 216.818,397.704 210.5,399.5C 210.137,400.183 209.804,400.85 209.5,401.5C 208.833,401.5 208.167,401.5 207.5,401.5C 194.217,403.603 180.884,405.27 167.5,406.5C 205.863,400.269 241.529,386.936 274.5,366.5C 297.509,353.811 318.176,338.144 336.5,319.5C 341.786,315.716 346.62,311.383 351,306.5C 360.167,296 369.333,285.5 378.5,275C 381.065,274.391 383.399,274.891 385.5,276.5 Z"/></g>
<g><path style="opacity:1" fill="#a46a41" d="M 247.5,387.5 C 247.389,388.117 247.056,388.617 246.5,389C 243.023,390.658 239.357,391.825 235.5,392.5C 238.997,390.098 242.997,388.432 247.5,387.5 Z"/></g>
<g><path style="opacity:1" fill="#083969" d="M 338.5,409.5 C 316.167,409.5 293.833,409.5 271.5,409.5C 266.167,409.5 260.833,409.5 255.5,409.5C 243.167,409.5 230.833,409.5 218.5,409.5C 231.729,408.944 245.062,408.111 258.5,407C 273.607,397.606 288.941,388.44 304.5,379.5C 315.173,371.638 326.173,363.972 337.5,356.5C 338.5,374.154 338.833,391.821 338.5,409.5 Z"/></g>
<g><path style="opacity:1" fill="#de8c33" d="M 197.5,369.5 C 196.746,372.091 195.079,373.924 192.5,375C 192.833,375.333 193.167,375.667 193.5,376C 189.833,378.333 186.167,380.667 182.5,383C 180.212,383.822 177.878,384.489 175.5,385C 167.239,390.67 158.239,394.503 148.5,396.5C 150.076,395.857 151.41,394.857 152.5,393.5C 157.131,390.849 161.798,388.182 166.5,385.5C 176.925,380.453 187.259,375.12 197.5,369.5 Z"/></g>
<g><path style="opacity:1" fill="#a6693b" d="M 229.5,394.5 C 223.209,397.599 216.543,399.932 209.5,401.5C 209.804,400.85 210.137,400.183 210.5,399.5C 216.818,397.704 223.151,396.038 229.5,394.5 Z"/></g>
<g><path style="opacity:1" fill="#1f2d49" d="M 207.5,402.5 C 206.319,404.067 204.653,404.901 202.5,405C 202.957,405.414 203.291,405.914 203.5,406.5C 202.051,407.172 200.718,407.839 199.5,408.5C 198.287,407.425 196.787,406.759 195,406.5C 190.285,408.055 185.451,408.721 180.5,408.5C 180.5,408.167 180.5,407.833 180.5,407.5C 189.562,406.156 198.562,404.49 207.5,402.5 Z"/></g>
<g><path style="opacity:0.997" fill="#aa6936" d="M 152.5,393.5 C 151.41,394.857 150.076,395.857 148.5,396.5C 142.218,399.838 141.885,403.671 147.5,408C 154.328,408.91 160.995,408.41 167.5,406.5C 180.884,405.27 194.217,403.603 207.5,401.5C 207.5,401.833 207.5,402.167 207.5,402.5C 198.562,404.49 189.562,406.156 180.5,407.5C 175.662,407.911 170.995,408.578 166.5,409.5C 162.002,409.785 157.502,410.118 153,410.5C 149.568,410.67 146.401,410.004 143.5,408.5C 141.016,400.301 144.016,395.301 152.5,393.5 Z"/></g>
<g><path style="opacity:1" fill="#433531" d="M 180.5,407.5 C 180.5,407.833 180.5,408.167 180.5,408.5C 175.881,409.314 171.214,409.647 166.5,409.5C 170.995,408.578 175.662,407.911 180.5,407.5 Z"/></g>
<g><path style="opacity:1" fill="#0f3c68" d="M 199.5,408.5 C 203.479,410.143 206.979,409.476 210,406.5C 210.899,407.907 212.733,408.907 215.5,409.5C 216.568,410.434 217.901,410.768 219.5,410.5C 219.5,412.167 219.5,413.833 219.5,415.5C 215.548,416.272 211.548,416.605 207.5,416.5C 207.665,420.182 207.499,423.848 207,427.5C 205.619,429.635 204.619,431.968 204,434.5C 199.934,435.464 195.767,435.797 191.5,435.5C 191.227,437.451 191.893,438.951 193.5,440C 192.833,440.333 192.167,440.667 191.5,441C 216.831,441.5 242.164,441.667 267.5,441.5C 274.167,441.5 280.833,441.5 287.5,441.5C 312.833,441.5 338.167,441.5 363.5,441.5C 279.5,442.833 195.5,442.833 111.5,441.5C 133.843,441.833 156.177,441.5 178.5,440.5C 166.211,430.521 154.545,419.854 143.5,408.5C 146.401,410.004 149.568,410.67 153,410.5C 157.502,410.118 162.002,409.785 166.5,409.5C 171.214,409.647 175.881,409.314 180.5,408.5C 185.451,408.721 190.285,408.055 195,406.5C 196.787,406.759 198.287,407.425 199.5,408.5 Z"/></g>
<g><path style="opacity:1" fill="#134676" d="M 215.5,409.5 C 216.5,409.5 217.5,409.5 218.5,409.5C 230.833,409.5 243.167,409.5 255.5,409.5C 257.969,410.317 260.635,410.817 263.5,411C 257.771,411.672 257.437,412.672 262.5,414C 260.167,414.333 257.833,414.667 255.5,415C 258.146,415.497 260.813,415.664 263.5,415.5C 263.5,421.5 263.5,427.5 263.5,433.5C 260.833,433.5 258.167,433.5 255.5,433.5C 255.341,436.187 256.175,438.52 258,440.5C 258.333,439.833 258.667,439.167 259,438.5C 261.667,438.5 264.333,438.5 267,438.5C 267.483,439.448 267.649,440.448 267.5,441.5C 242.164,441.667 216.831,441.5 191.5,441C 192.167,440.667 192.833,440.333 193.5,440C 191.893,438.951 191.227,437.451 191.5,435.5C 195.767,435.797 199.934,435.464 204,434.5C 204.619,431.968 205.619,429.635 207,427.5C 207.499,423.848 207.665,420.182 207.5,416.5C 211.548,416.605 215.548,416.272 219.5,415.5C 219.5,413.833 219.5,412.167 219.5,410.5C 217.901,410.768 216.568,410.434 215.5,409.5 Z"/></g>
<g><path style="opacity:1" fill="#194e80" d="M 255.5,409.5 C 260.833,409.5 266.167,409.5 271.5,409.5C 277.064,410.145 282.731,410.978 288.5,412C 287.833,412.333 287.167,412.667 286.5,413C 287.833,414 287.833,415 286.5,416C 287.006,418.532 288.173,420.698 290,422.5C 290.498,425.482 290.665,428.482 290.5,431.5C 289.325,431.281 288.325,431.614 287.5,432.5C 290.086,433.48 292.753,433.813 295.5,433.5C 295.33,434.822 295.663,435.989 296.5,437C 299.451,437.096 302.118,437.929 304.5,439.5C 298.681,440.167 293.014,440.833 287.5,441.5C 280.833,441.5 274.167,441.5 267.5,441.5C 267.649,440.448 267.483,439.448 267,438.5C 264.333,438.5 261.667,438.5 259,438.5C 258.667,439.167 258.333,439.833 258,440.5C 256.175,438.52 255.341,436.187 255.5,433.5C 258.167,433.5 260.833,433.5 263.5,433.5C 263.5,427.5 263.5,421.5 263.5,415.5C 260.813,415.664 258.146,415.497 255.5,415C 257.833,414.667 260.167,414.333 262.5,414C 257.437,412.672 257.771,411.672 263.5,411C 260.635,410.817 257.969,410.317 255.5,409.5 Z"/></g>
<g><path style="opacity:1" fill="#1f5889" d="M 387.5,431.5 C 384.545,433.122 381.878,435.122 379.5,437.5C 374.315,439.463 368.981,440.796 363.5,441.5C 338.167,441.5 312.833,441.5 287.5,441.5C 293.014,440.833 298.681,440.167 304.5,439.5C 302.118,437.929 299.451,437.096 296.5,437C 295.663,435.989 295.33,434.822 295.5,433.5C 292.753,433.813 290.086,433.48 287.5,432.5C 288.325,431.614 289.325,431.281 290.5,431.5C 290.665,428.482 290.498,425.482 290,422.5C 288.173,420.698 287.006,418.532 286.5,416C 287.833,415 287.833,414 286.5,413C 287.167,412.667 287.833,412.333 288.5,412C 282.731,410.978 277.064,410.145 271.5,409.5C 293.833,409.5 316.167,409.5 338.5,409.5C 338.833,409.5 339.167,409.5 339.5,409.5C 344.248,409.725 348.915,409.225 353.5,408C 355.497,406.807 357.164,405.307 358.5,403.5C 359.822,403.67 360.989,403.337 362,402.5C 362.333,395.833 362.667,389.167 363,382.5C 363.333,387.5 363.667,392.5 364,397.5C 366.719,402.8 368.053,408.467 368,414.5C 369.85,407.374 372.017,407.04 374.5,413.5C 377.428,414.484 380.428,414.817 383.5,414.5C 383.192,416.924 383.526,419.257 384.5,421.5C 385.466,419.604 385.799,417.604 385.5,415.5C 386.5,415.5 387.5,415.5 388.5,415.5C 388.334,408.159 388.5,400.826 389,393.5C 389.185,400.747 389.685,407.913 390.5,415C 389.833,415.667 389.167,416.333 388.5,417C 389.944,418.126 390.61,419.626 390.5,421.5C 389.904,423.188 389.071,424.854 388,426.5C 386.488,425.743 385.154,424.743 384,423.5C 383.666,425.847 383.833,428.181 384.5,430.5C 385.791,430.263 386.791,430.596 387.5,431.5 Z"/></g>
<g><path style="opacity:0.506" fill="#92a6b3" d="M 76.5,420.5 C 77.404,421.209 77.7373,422.209 77.5,423.5C 76.7326,422.828 76.0659,421.995 75.5,421C 75.7284,420.601 76.0618,420.435 76.5,420.5 Z"/></g>
<g><path style="opacity:0.98" fill="#435777" d="M 387.5,431.5 C 383.186,439.671 376.52,445.004 367.5,447.5C 367.5,447.167 367.5,446.833 367.5,446.5C 370.097,445.111 372.43,443.278 374.5,441C 376.134,440.506 377.801,440.34 379.5,440.5C 379.5,439.5 379.5,438.5 379.5,437.5C 381.878,435.122 384.545,433.122 387.5,431.5 Z"/></g>
<g><path style="opacity:1" fill="#052f59" d="M 379.5,437.5 C 379.5,438.5 379.5,439.5 379.5,440.5C 377.801,440.34 376.134,440.506 374.5,441C 372.43,443.278 370.097,445.111 367.5,446.5C 329.715,446.432 293.215,446.432 258,446.5C 257.667,445.833 257.333,445.167 257,444.5C 251.243,445.81 245.243,446.476 239,446.5C 232.757,446.476 226.757,445.81 221,444.5C 220.333,447.167 219.667,447.167 219,444.5C 218.333,447.167 217.667,447.167 217,444.5C 216.333,447.167 215.667,447.167 215,444.5C 214.333,447.167 213.667,447.167 213,444.5C 212.333,447.167 211.667,447.167 211,444.5C 210.333,447.167 209.667,447.167 209,444.5C 207.647,445.704 205.981,446.371 204,446.5C 197.754,445.1 191.588,445.434 185.5,447.5C 182.402,447.681 179.569,447.015 177,445.5C 167.971,445.752 159.638,446.085 152,446.5C 138.575,445.676 125.075,445.176 111.5,445C 111.833,444.667 112.167,444.333 112.5,444C 110.934,443.392 109.6,442.558 108.5,441.5C 109.5,441.5 110.5,441.5 111.5,441.5C 195.5,442.833 279.5,442.833 363.5,441.5C 368.981,440.796 374.315,439.463 379.5,437.5 Z"/></g>
<g><path style="opacity:1" fill="#0c2d53" d="M 76.5,238.5 C 77.3326,275.664 77.8326,312.998 78,350.5C 78.3333,354.833 78.6667,359.167 79,363.5C 79.714,354.504 80.3807,345.504 81,336.5C 81.1718,361.072 81.6718,385.572 82.5,410C 81.0392,412.582 81.7059,414.415 84.5,415.5C 87.3657,428.928 95.3657,437.594 108.5,441.5C 109.6,442.558 110.934,443.392 112.5,444C 112.167,444.333 111.833,444.667 111.5,445C 125.075,445.176 138.575,445.676 152,446.5C 159.638,446.085 167.971,445.752 177,445.5C 179.569,447.015 182.402,447.681 185.5,447.5C 191.588,445.434 197.754,445.1 204,446.5C 205.981,446.371 207.647,445.704 209,444.5C 209.667,447.167 210.333,447.167 211,444.5C 211.667,447.167 212.333,447.167 213,444.5C 213.667,447.167 214.333,447.167 215,444.5C 215.667,447.167 216.333,447.167 217,444.5C 217.667,447.167 218.333,447.167 219,444.5C 219.667,447.167 220.333,447.167 221,444.5C 226.757,445.81 232.757,446.476 239,446.5C 245.243,446.476 251.243,445.81 257,444.5C 257.333,445.167 257.667,445.833 258,446.5C 293.215,446.432 329.715,446.432 367.5,446.5C 367.5,446.833 367.5,447.167 367.5,447.5C 362.659,449.152 357.659,449.818 352.5,449.5C 271.32,448.825 189.986,448.158 108.5,447.5C 107.274,447.52 106.274,447.853 105.5,448.5C 96.7152,447.048 89.7152,442.715 84.5,435.5C 84.0698,429.028 81.7364,423.361 77.5,418.5C 76.5,358.504 76.1667,298.504 76.5,238.5 Z"/></g>
<g><path style="opacity:0.631" fill="#192f4a" d="M 105.5,448.5 C 106.274,447.853 107.274,447.52 108.5,447.5C 189.986,448.158 271.32,448.825 352.5,449.5C 270.096,449.83 187.763,449.497 105.5,448.5 Z"/></g>
</svg>
