<?xml version="1.0" encoding="UTF-8"?>
<!DOCTYPE svg PUBLIC "-//W3C//DTD SVG 1.1//EN" "http://www.w3.org/Graphics/SVG/1.1/DTD/svg11.dtd">
<svg xmlns="http://www.w3.org/2000/svg" version="1.1" width="500px" height="500px" style="shape-rendering:geometricPrecision; text-rendering:geometricPrecision; image-rendering:optimizeQuality; fill-rule:evenodd; clip-rule:evenodd" xmlns:xlink="http://www.w3.org/1999/xlink">
<g><path style="opacity:1" fill="#1c4f8b" d="M 361.5,99.5 C 363.003,103.474 365.67,106.141 369.5,107.5C 375.748,112.579 381.581,118.246 387,124.5C 388.528,127.417 389.861,130.417 391,133.5C 391.833,147.512 391.666,161.512 390.5,175.5C 373.447,183.595 356.447,191.595 339.5,199.5C 337.821,199.285 336.821,199.952 336.5,201.5C 336.167,201.5 335.833,201.5 335.5,201.5C 333.821,201.285 332.821,201.952 332.5,203.5C 320.489,208.03 309.322,214.03 299,221.5C 298.163,223.838 297.33,226.172 296.5,228.5C 297.467,230.762 298.134,233.095 298.5,235.5C 298.427,237.027 299.094,238.027 300.5,238.5C 309.434,245.255 318.267,252.255 327,259.5C 327.595,260.899 327.428,262.232 326.5,263.5C 324.448,265.878 322.448,268.211 320.5,270.5C 320.631,269.624 320.298,268.957 319.5,268.5C 318.614,269.325 318.281,270.325 318.5,271.5C 316.5,272.167 314.5,272.833 312.5,273.5C 312.5,274.833 312.5,276.167 312.5,277.5C 307.561,277.746 305.894,280.079 307.5,284.5C 304.671,284.325 303.004,285.658 302.5,288.5C 299.684,285.743 299.018,286.243 300.5,290C 299.216,290.684 298.049,290.517 297,289.5C 294.904,290.715 295.071,291.549 297.5,292C 296.62,293.356 296.286,294.856 296.5,296.5C 294.521,299.812 291.855,302.479 288.5,304.5C 286.857,304.52 285.524,303.853 284.5,302.5C 283.77,303.934 282.77,305.1 281.5,306C 281.833,306.333 282.167,306.667 282.5,307C 281.24,308.113 280.073,308.28 279,307.5C 278.682,309.061 277.849,310.228 276.5,311C 277.5,311.333 278.5,311.667 279.5,312C 277.939,312.318 276.772,313.151 276,314.5C 274.334,313.66 274.167,314.16 275.5,316C 273.065,316.075 272.398,316.908 273.5,318.5C 232.188,355.322 186.188,384.822 135.5,407C 128.891,412.546 128.891,418.046 135.5,423.5C 135.833,424.167 136.167,424.833 136.5,425.5C 136.987,426.473 137.487,427.473 138,428.5C 148.38,428.573 158.88,428.406 169.5,428C 171.315,427.243 172.981,426.41 174.5,425.5C 174.833,425.5 175.167,425.5 175.5,425.5C 184.534,425.267 193.368,423.934 202,421.5C 204.289,420.978 206.456,421.645 208.5,423.5C 208.835,422.336 208.835,421.003 208.5,419.5C 212.122,418.675 215.789,418.175 219.5,418C 218.5,417.667 217.5,417.333 216.5,417C 219.107,415.648 221.44,414.148 223.5,412.5C 223.5,412.167 223.5,411.833 223.5,411.5C 263.646,410.856 303.646,410.19 343.5,409.5C 346.849,408.316 349.015,405.983 350,402.5C 350.333,384.5 350.667,366.5 351,348.5C 354.343,344.99 357.843,341.657 361.5,338.5C 363.199,338.66 364.866,338.494 366.5,338C 365.786,336.657 366.12,335.324 367.5,334C 369.5,333.667 371.5,333.333 373.5,333C 373.043,332.586 372.709,332.086 372.5,331.5C 373.752,329.999 374.752,328.332 375.5,326.5C 378.812,325.382 382.145,325.382 385.5,326.5C 385.131,328.993 385.797,329.66 387.5,328.5C 388.482,329.141 389.482,329.807 390.5,330.5C 391.83,364.331 391.83,397.998 390.5,431.5C 389.883,431.389 389.383,431.056 389,430.5C 387.674,434.822 385.508,438.655 382.5,442C 383.056,442.383 383.389,442.883 383.5,443.5C 378.646,448.594 372.646,451.594 365.5,452.5C 320.838,451.167 275.838,450.5 230.5,450.5C 185.332,450.5 140.332,450.833 95.5,451.5C 90.5725,450.185 85.5725,449.019 80.5,448C 78.3576,444.278 75.6909,441.111 72.5,438.5C 71.3044,438.846 71.3044,439.346 72.5,440C 71.9056,440.464 71.2389,440.631 70.5,440.5C 67.8694,436.305 66.3694,431.638 66,426.5C 65.1737,414.326 65.3403,402.326 66.5,390.5C 67.8333,366.833 67.8333,343.167 66.5,319.5C 65.8761,314.222 65.5428,309.222 65.5,304.5C 66.3329,245.668 66.8329,186.668 67,127.5C 68.0761,104.483 68.9094,81.4831 69.5,58.5C 69.0302,57.537 68.3635,57.537 67.5,58.5C 67.9348,55.8427 68.9348,53.5093 70.5,51.5C 73.1897,49.8065 75.1897,47.4732 76.5,44.5C 79.3203,41.9193 82.6536,40.0859 86.5,39C 156.833,38.3333 227.167,38.3333 297.5,39C 303.608,41.4254 308.942,45.092 313.5,50C 329.724,66.3893 345.724,82.8893 361.5,99.5 Z M 146.5,106.5 C 182.21,106.18 217.876,106.513 253.5,107.5C 258.429,114.684 257.095,120.35 249.5,124.5C 208.094,124.827 166.761,124.494 125.5,123.5C 118.11,118.476 117.777,112.976 124.5,107C 131.826,106.5 139.159,106.334 146.5,106.5 Z M 282.5,189.5 C 230.834,189.349 178.834,189.349 126.5,189.5C 117.931,184.012 117.598,178.179 125.5,172C 178.833,171.333 232.167,171.333 285.5,172C 291.303,176.286 291.969,181.286 287.5,187C 285.509,187.374 283.842,188.207 282.5,189.5 Z M 126.5,236.5 C 167.833,236.5 209.167,236.5 250.5,236.5C 258.787,242.487 258.453,247.987 249.5,253C 210.823,253.197 172.156,253.697 133.5,254.5C 127.334,255.184 122.834,252.851 120,247.5C 119.612,242.27 121.779,238.604 126.5,236.5 Z"/></g>
<g><path style="opacity:0.353" fill="#87a1b9" d="M 76.5,44.5 C 75.1897,47.4732 73.1897,49.8065 70.5,51.5C 71.7805,48.5526 73.7805,46.2193 76.5,44.5 Z"/></g>
<g><path style="opacity:1" fill="#446592" d="M 65.5,304.5 C 65.3333,241.832 65.5,179.166 66,116.5C 66.1682,96.9957 66.6682,77.6623 67.5,58.5C 68.3635,57.537 69.0302,57.537 69.5,58.5C 68.9094,81.4831 68.0761,104.483 67,127.5C 66.8329,186.668 66.3329,245.668 65.5,304.5 Z"/></g>
<g><path style="opacity:0.122" fill="#547293" d="M 146.5,106.5 C 181.664,105.336 216.998,105.169 252.5,106C 253.056,106.383 253.389,106.883 253.5,107.5C 217.876,106.513 182.21,106.18 146.5,106.5 Z"/></g>
<g><path style="opacity:1" fill="#657aa0" d="M 361.5,99.5 C 364.833,101.5 367.5,104.167 369.5,107.5C 365.67,106.141 363.003,103.474 361.5,99.5 Z"/></g>
<g><path style="opacity:0.713" fill="#234268" d="M 125.5,123.5 C 166.761,124.494 208.094,124.827 249.5,124.5C 208.002,125.665 166.335,125.831 124.5,125C 123.376,124.751 122.376,124.251 121.5,123.5C 121.667,123.167 121.833,122.833 122,122.5C 123.011,123.337 124.178,123.67 125.5,123.5 Z"/></g>
<g><path style="opacity:0.825" fill="#eaa062" d="M 441.5,185.5 C 441.751,182.091 441.417,178.758 440.5,175.5C 438.149,173.771 435.482,173.104 432.5,173.5C 435.757,171.051 438.923,171.384 442,174.5C 443.656,178.316 443.489,181.982 441.5,185.5 Z"/></g>
<g><path style="opacity:1" fill="#f78d26" d="M 432.5,173.5 C 435.482,173.104 438.149,173.771 440.5,175.5C 441.417,178.758 441.751,182.091 441.5,185.5C 441.672,186.492 441.338,187.158 440.5,187.5C 438.902,190.895 436.568,193.895 433.5,196.5C 434.426,200.094 434.759,203.76 434.5,207.5C 432.41,216.643 430.077,225.643 427.5,234.5C 426.542,234.953 425.708,235.619 425,236.5C 423.324,243.058 422.158,249.724 421.5,256.5C 421.5,257.167 421.5,257.833 421.5,258.5C 419.636,259.978 418.303,261.978 417.5,264.5C 415.177,273.444 413.177,282.444 411.5,291.5C 411.5,292.167 411.5,292.833 411.5,293.5C 410.033,292.708 408.7,292.708 407.5,293.5C 408.063,294.939 408.397,296.439 408.5,298C 407.134,301.694 406.468,305.528 406.5,309.5C 404.953,314.709 401.62,316.376 396.5,314.5C 390.825,310.154 385.492,305.488 380.5,300.5C 379.01,298.72 377.01,298.054 374.5,298.5C 374.371,300.216 374.038,301.883 373.5,303.5C 370.452,307.215 367.119,310.548 363.5,313.5C 362.432,312.566 361.099,312.232 359.5,312.5C 359.5,313.833 359.5,315.167 359.5,316.5C 357.058,316.119 356.391,316.786 357.5,318.5C 355.994,319.747 354.494,319.747 353,318.5C 353.019,320.107 353.185,321.774 353.5,323.5C 353.5,324.167 353.167,324.5 352.5,324.5C 350.856,324.714 349.356,324.38 348,323.5C 347.55,326.106 346.05,327.439 343.5,327.5C 343.762,328.978 343.429,330.311 342.5,331.5C 340.167,330.5 339.5,331.167 340.5,333.5C 339.675,334.386 338.675,334.719 337.5,334.5C 337.5,335.5 337.5,336.5 337.5,337.5C 336.5,337.5 335.5,337.5 334.5,337.5C 334.5,338.5 334.5,339.5 334.5,340.5C 332.011,340.298 329.677,340.798 327.5,342C 328.552,343.716 327.886,344.716 325.5,345C 326.308,345.308 326.975,345.808 327.5,346.5C 325.5,347.167 323.5,347.833 321.5,348.5C 321.833,349.167 322.167,349.833 322.5,350.5C 321.09,351.569 320.09,352.903 319.5,354.5C 315.909,358.299 311.909,361.633 307.5,364.5C 305.071,364.884 302.737,365.551 300.5,366.5C 300.5,367.5 300.5,368.5 300.5,369.5C 292.046,376.281 283.046,382.281 273.5,387.5C 272.054,386.387 270.387,386.22 268.5,387C 267.692,388.706 266.359,389.539 264.5,389.5C 264.5,390.833 264.5,392.167 264.5,393.5C 256.663,397.678 248.663,401.678 240.5,405.5C 236.165,406.657 231.832,406.824 227.5,406C 228.328,406.915 229.328,407.581 230.5,408C 227.639,407.97 225.305,408.803 223.5,410.5C 223.5,410.833 223.5,411.167 223.5,411.5C 214.853,413.755 206.187,415.588 197.5,417C 195.937,417.759 194.937,418.926 194.5,420.5C 188.449,422.569 182.116,423.903 175.5,424.5C 163.162,424.667 150.829,424.5 138.5,424C 140.137,423.399 141.803,422.899 143.5,422.5C 148.21,424.104 152.543,423.437 156.5,420.5C 152.639,419.402 152.639,418.569 156.5,418C 152.815,417.086 153.148,416.419 157.5,416C 157.167,415.667 156.833,415.333 156.5,415C 158.275,413.561 160.275,412.561 162.5,412C 163.252,411.329 163.586,410.496 163.5,409.5C 163.833,409.5 164.167,409.5 164.5,409.5C 169.639,408.174 174.639,406.341 179.5,404C 180.252,403.329 180.586,402.496 180.5,401.5C 181.873,401.657 183.207,401.49 184.5,401C 189.036,396.744 194.036,395.577 199.5,397.5C 200.741,396.963 201.908,396.296 203,395.5C 204,396.167 205,396.833 206,397.5C 206.5,397.167 207,396.833 207.5,396.5C 206.5,395.667 205.5,394.833 204.5,394C 203.167,394 201.833,394 200.5,394C 204.334,389.928 208.667,386.595 213.5,384C 214.944,383.219 216.277,383.386 217.5,384.5C 210.819,390.174 211.819,391.507 220.5,388.5C 221.781,385.568 221.114,383.068 218.5,381C 219.649,379.256 220.983,379.089 222.5,380.5C 224.416,377.483 227.083,375.15 230.5,373.5C 231.612,372.735 232.279,371.735 232.5,370.5C 232.5,370.167 232.5,369.833 232.5,369.5C 235.606,369.064 238.273,367.731 240.5,365.5C 242.384,365.288 243.717,364.288 244.5,362.5C 246.116,363.115 247.449,364.115 248.5,365.5C 249.282,363.671 248.616,362.171 246.5,361C 250.311,358.965 254.311,357.298 258.5,356C 260.662,354.355 261.995,352.188 262.5,349.5C 264.341,348.77 266.175,348.103 268,347.5C 269.563,344.273 271.397,341.273 273.5,338.5C 279.527,335.558 284.527,331.225 288.5,325.5C 289.122,323.878 290.122,322.545 291.5,321.5C 293.998,320.088 296.664,318.921 299.5,318C 301.468,314.04 304.135,310.707 307.5,308C 308.448,307.517 309.448,307.351 310.5,307.5C 310.833,305.5 311.167,303.5 311.5,301.5C 312.5,299.833 313.833,298.5 315.5,297.5C 317.828,295.7 320.495,294.533 323.5,294C 324.726,289.301 327.226,285.468 331,282.5C 333.558,285.763 336.725,286.43 340.5,284.5C 342.709,284.569 344.709,285.236 346.5,286.5C 346.291,287.086 345.957,287.586 345.5,288C 348.134,288.925 349.301,288.091 349,285.5C 346.067,285.067 344.233,283.401 343.5,280.5C 342.277,279.386 340.944,279.219 339.5,280C 335.945,284.884 333.612,284.384 332.5,278.5C 334.39,278.703 335.89,278.037 337,276.5C 338.937,272.286 341.104,268.286 343.5,264.5C 344.117,262.771 345.117,261.271 346.5,260C 340.677,256.334 335.01,252.5 329.5,248.5C 327.309,245.387 324.309,243.22 320.5,242C 319.91,240.491 319.244,238.991 318.5,237.5C 313.915,239.019 312.415,237.352 314,232.5C 316.335,230.6 318.502,228.6 320.5,226.5C 326.895,222.971 333.561,219.971 340.5,217.5C 344.774,216.619 348.941,215.286 353,213.5C 353.5,213.833 354,214.167 354.5,214.5C 353.5,215.167 352.5,215.833 351.5,216.5C 354.926,218.114 357.592,217.281 359.5,214C 358.643,213.311 357.977,212.478 357.5,211.5C 360.099,210.969 362.765,210.802 365.5,211C 364.672,210.085 363.672,209.419 362.5,209C 365.214,207.206 368.214,206.04 371.5,205.5C 372.857,203.814 374.19,202.148 375.5,200.5C 394.241,191.3 413.241,182.3 432.5,173.5 Z"/></g>
<g><path style="opacity:0.874" fill="#315685" d="M 282.5,189.5 C 230.5,190.833 178.5,190.833 126.5,189.5C 178.834,189.349 230.834,189.349 282.5,189.5 Z"/></g>
<g><path style="opacity:0.8" fill="#ea974b" d="M 440.5,187.5 C 439.364,194.59 437.364,201.257 434.5,207.5C 434.759,203.76 434.426,200.094 433.5,196.5C 436.568,193.895 438.902,190.895 440.5,187.5 Z"/></g>
<g><path style="opacity:0.216" fill="#a4c1d1" d="M 339.5,199.5 C 338.71,200.401 337.71,201.068 336.5,201.5C 336.821,199.952 337.821,199.285 339.5,199.5 Z"/></g>
<g><path style="opacity:0.169" fill="#a0bfd1" d="M 335.5,201.5 C 334.71,202.401 333.71,203.068 332.5,203.5C 332.821,201.952 333.821,201.285 335.5,201.5 Z"/></g>
<g><path style="opacity:1" fill="#ed933d" d="M 375.5,200.5 C 374.19,202.148 372.857,203.814 371.5,205.5C 368.214,206.04 365.214,207.206 362.5,209C 363.672,209.419 364.672,210.085 365.5,211C 362.765,210.802 360.099,210.969 357.5,211.5C 357.977,212.478 358.643,213.311 359.5,214C 357.592,217.281 354.926,218.114 351.5,216.5C 352.5,215.833 353.5,215.167 354.5,214.5C 354,214.167 353.5,213.833 353,213.5C 348.941,215.286 344.774,216.619 340.5,217.5C 352.037,211.565 363.703,205.898 375.5,200.5 Z"/></g>
<g><path style="opacity:0.91" fill="#415d88" d="M 250.5,236.5 C 209.167,236.5 167.833,236.5 126.5,236.5C 124.621,236.607 124.288,236.107 125.5,235C 167.837,234.167 210.171,234.333 252.5,235.5C 252.043,236.298 251.376,236.631 250.5,236.5 Z"/></g>
<g><path style="opacity:0.11" fill="#bdcae5" d="M 298.5,235.5 C 299.906,235.973 300.573,236.973 300.5,238.5C 299.094,238.027 298.427,237.027 298.5,235.5 Z"/></g>
<g><path style="opacity:0.998" fill="#e79a4f" d="M 320.5,226.5 C 318.502,228.6 316.335,230.6 314,232.5C 312.415,237.352 313.915,239.019 318.5,237.5C 319.244,238.991 319.91,240.491 320.5,242C 324.309,243.22 327.309,245.387 329.5,248.5C 323.474,246.069 317.974,242.735 313,238.5C 311.233,231.776 313.733,227.776 320.5,226.5 Z"/></g>
<g><path style="opacity:0.925" fill="#e79f55" d="M 427.5,234.5 C 426.344,242.164 424.344,249.497 421.5,256.5C 422.158,249.724 423.324,243.058 425,236.5C 425.708,235.619 426.542,234.953 427.5,234.5 Z"/></g>
<g><path style="opacity:1" fill="#e9984a" d="M 421.5,258.5 C 418.913,269.805 415.58,280.805 411.5,291.5C 413.177,282.444 415.177,273.444 417.5,264.5C 418.303,261.978 419.636,259.978 421.5,258.5 Z"/></g>
<g><path style="opacity:1" fill="#f0933a" d="M 343.5,264.5 C 341.104,268.286 338.937,272.286 337,276.5C 335.89,278.037 334.39,278.703 332.5,278.5C 333.612,284.384 335.945,284.884 339.5,280C 340.944,279.219 342.277,279.386 343.5,280.5C 344.233,283.401 346.067,285.067 349,285.5C 349.301,288.091 348.134,288.925 345.5,288C 345.957,287.586 346.291,287.086 346.5,286.5C 344.709,285.236 342.709,284.569 340.5,284.5C 336.725,286.43 333.558,285.763 331,282.5C 327.226,285.468 324.726,289.301 323.5,294C 320.495,294.533 317.828,295.7 315.5,297.5C 324.863,286.475 334.196,275.475 343.5,264.5 Z"/></g>
<g><path style="opacity:1" fill="#425f90" d="M 320.5,270.5 C 313.405,280.042 305.405,288.708 296.5,296.5C 296.286,294.856 296.62,293.356 297.5,292C 295.071,291.549 294.904,290.715 297,289.5C 298.049,290.517 299.216,290.684 300.5,290C 299.018,286.243 299.684,285.743 302.5,288.5C 303.004,285.658 304.671,284.325 307.5,284.5C 305.894,280.079 307.561,277.746 312.5,277.5C 312.5,276.167 312.5,274.833 312.5,273.5C 314.5,272.833 316.5,272.167 318.5,271.5C 318.281,270.325 318.614,269.325 319.5,268.5C 320.298,268.957 320.631,269.624 320.5,270.5 Z"/></g>
<g><path style="opacity:0.988" fill="#f1ad6a" d="M 380.5,300.5 C 379.504,300.586 378.671,300.252 378,299.5C 376.629,301.041 375.129,302.375 373.5,303.5C 374.038,301.883 374.371,300.216 374.5,298.5C 377.01,298.054 379.01,298.72 380.5,300.5 Z"/></g>
<g><path style="opacity:0.929" fill="#ee9e55" d="M 411.5,293.5 C 410.434,299.121 408.767,304.454 406.5,309.5C 406.468,305.528 407.134,301.694 408.5,298C 408.397,296.439 408.063,294.939 407.5,293.5C 408.7,292.708 410.033,292.708 411.5,293.5 Z"/></g>
<g><path style="opacity:1" fill="#416192" d="M 288.5,304.5 C 283.827,309.506 278.827,314.172 273.5,318.5C 272.398,316.908 273.065,316.075 275.5,316C 274.167,314.16 274.334,313.66 276,314.5C 276.772,313.151 277.939,312.318 279.5,312C 278.5,311.667 277.5,311.333 276.5,311C 277.849,310.228 278.682,309.061 279,307.5C 280.073,308.28 281.24,308.113 282.5,307C 282.167,306.667 281.833,306.333 281.5,306C 282.77,305.1 283.77,303.934 284.5,302.5C 285.524,303.853 286.857,304.52 288.5,304.5 Z"/></g>
<g><path style="opacity:0.843" fill="#eb9e56" d="M 311.5,301.5 C 311.167,303.5 310.833,305.5 310.5,307.5C 309.448,307.351 308.448,307.517 307.5,308C 304.135,310.707 301.468,314.04 299.5,318C 296.664,318.921 293.998,320.088 291.5,321.5C 298.5,315.167 305.167,308.5 311.5,301.5 Z"/></g>
<g><path style="opacity:1" fill="#ef9b4a" d="M 363.5,313.5 C 360.882,317.452 357.549,320.785 353.5,323.5C 353.185,321.774 353.019,320.107 353,318.5C 354.494,319.747 355.994,319.747 357.5,318.5C 356.391,316.786 357.058,316.119 359.5,316.5C 359.5,315.167 359.5,313.833 359.5,312.5C 361.099,312.232 362.432,312.566 363.5,313.5 Z"/></g>
<g><path style="opacity:1" fill="#f29d4e" d="M 352.5,324.5 C 342.754,335.914 331.754,345.914 319.5,354.5C 320.09,352.903 321.09,351.569 322.5,350.5C 322.167,349.833 321.833,349.167 321.5,348.5C 323.5,347.833 325.5,347.167 327.5,346.5C 326.975,345.808 326.308,345.308 325.5,345C 327.886,344.716 328.552,343.716 327.5,342C 329.677,340.798 332.011,340.298 334.5,340.5C 334.5,339.5 334.5,338.5 334.5,337.5C 335.5,337.5 336.5,337.5 337.5,337.5C 337.5,336.5 337.5,335.5 337.5,334.5C 338.675,334.719 339.675,334.386 340.5,333.5C 339.5,331.167 340.167,330.5 342.5,331.5C 343.429,330.311 343.762,328.978 343.5,327.5C 346.05,327.439 347.55,326.106 348,323.5C 349.356,324.38 350.856,324.714 352.5,324.5 Z"/></g>
<g><path style="opacity:1" fill="#3f5d8c" d="M 387.5,328.5 C 385.797,329.66 385.131,328.993 385.5,326.5C 382.145,325.382 378.812,325.382 375.5,326.5C 374.752,328.332 373.752,329.999 372.5,331.5C 372.709,332.086 373.043,332.586 373.5,333C 371.5,333.333 369.5,333.667 367.5,334C 366.12,335.324 365.786,336.657 366.5,338C 364.866,338.494 363.199,338.66 361.5,338.5C 366.994,332.068 372.994,326.068 379.5,320.5C 382.548,322.882 385.215,325.548 387.5,328.5 Z"/></g>
<g><path style="opacity:1" fill="#e9984d" d="M 288.5,325.5 C 284.527,331.225 279.527,335.558 273.5,338.5C 277.931,333.46 282.931,329.127 288.5,325.5 Z"/></g>
<g><path style="opacity:0.941" fill="#274b71" d="M 66.5,319.5 C 67.8333,343.167 67.8333,366.833 66.5,390.5C 66.4447,366.993 66.4447,343.326 66.5,319.5 Z"/></g>
<g><path style="opacity:1" fill="#f09034" d="M 273.5,338.5 C 271.397,341.273 269.563,344.273 268,347.5C 266.175,348.103 264.341,348.77 262.5,349.5C 261.995,352.188 260.662,354.355 258.5,356C 254.311,357.298 250.311,358.965 246.5,361C 248.616,362.171 249.282,363.671 248.5,365.5C 247.449,364.115 246.116,363.115 244.5,362.5C 243.717,364.288 242.384,365.288 240.5,365.5C 241.167,364.5 241.833,363.5 242.5,362.5C 252.542,354.124 262.876,346.124 273.5,338.5 Z"/></g>
<g><path style="opacity:0.714" fill="#e7aa68" d="M 242.5,362.5 C 241.833,363.5 241.167,364.5 240.5,365.5C 238.273,367.731 235.606,369.064 232.5,369.5C 235.825,367.169 239.158,364.836 242.5,362.5 Z"/></g>
<g><path style="opacity:0.929" fill="#eda564" d="M 307.5,364.5 C 305.45,366.547 303.117,368.214 300.5,369.5C 300.5,368.5 300.5,367.5 300.5,366.5C 302.737,365.551 305.071,364.884 307.5,364.5 Z"/></g>
<g><path style="opacity:1" fill="#ee9a48" d="M 273.5,387.5 C 270.544,389.436 267.544,391.436 264.5,393.5C 264.5,392.167 264.5,390.833 264.5,389.5C 266.359,389.539 267.692,388.706 268.5,387C 270.387,386.22 272.054,386.387 273.5,387.5 Z"/></g>
<g><path style="opacity:1" fill="#f09136" d="M 232.5,370.5 C 232.279,371.735 231.612,372.735 230.5,373.5C 227.083,375.15 224.416,377.483 222.5,380.5C 220.983,379.089 219.649,379.256 218.5,381C 221.114,383.068 221.781,385.568 220.5,388.5C 211.819,391.507 210.819,390.174 217.5,384.5C 216.277,383.386 214.944,383.219 213.5,384C 208.667,386.595 204.334,389.928 200.5,394C 201.833,394 203.167,394 204.5,394C 205.5,394.833 206.5,395.667 207.5,396.5C 207,396.833 206.5,397.167 206,397.5C 205,396.833 204,396.167 203,395.5C 201.908,396.296 200.741,396.963 199.5,397.5C 194.036,395.577 189.036,396.744 184.5,401C 183.207,401.49 181.873,401.657 180.5,401.5C 197.784,391.187 215.117,380.854 232.5,370.5 Z"/></g>
<g><path style="opacity:0.953" fill="#e79849" d="M 180.5,401.5 C 180.586,402.496 180.252,403.329 179.5,404C 174.639,406.341 169.639,408.174 164.5,409.5C 169.456,406.279 174.789,403.612 180.5,401.5 Z"/></g>
<g><path style="opacity:1" fill="#e89748" d="M 240.5,405.5 C 238.167,406.833 235.833,408.167 233.5,409.5C 230.119,409.46 226.786,409.793 223.5,410.5C 225.305,408.803 227.639,407.97 230.5,408C 229.328,407.581 228.328,406.915 227.5,406C 231.832,406.824 236.165,406.657 240.5,405.5 Z"/></g>
<g><path style="opacity:0.945" fill="#aea09b" d="M 233.5,409.5 C 270.167,409.5 306.833,409.5 343.5,409.5C 303.646,410.19 263.646,410.856 223.5,411.5C 223.5,411.167 223.5,410.833 223.5,410.5C 226.786,409.793 230.119,409.46 233.5,409.5 Z"/></g>
<g><path style="opacity:1" fill="#e18f3e" d="M 223.5,411.5 C 223.5,411.833 223.5,412.167 223.5,412.5C 218.076,414.024 212.743,415.857 207.5,418C 203.197,419.05 198.863,419.884 194.5,420.5C 194.937,418.926 195.937,417.759 197.5,417C 206.187,415.588 214.853,413.755 223.5,411.5 Z"/></g>
<g><path style="opacity:1" fill="#354d74" d="M 223.5,412.5 C 221.44,414.148 219.107,415.648 216.5,417C 217.5,417.333 218.5,417.667 219.5,418C 215.789,418.175 212.122,418.675 208.5,419.5C 208.835,421.003 208.835,422.336 208.5,423.5C 206.456,421.645 204.289,420.978 202,421.5C 193.368,423.934 184.534,425.267 175.5,425.5C 175.5,425.167 175.5,424.833 175.5,424.5C 182.116,423.903 188.449,422.569 194.5,420.5C 198.863,419.884 203.197,419.05 207.5,418C 212.743,415.857 218.076,414.024 223.5,412.5 Z"/></g>
<g><path style="opacity:1" fill="#ee9136" d="M 163.5,409.5 C 163.586,410.496 163.252,411.329 162.5,412C 160.275,412.561 158.275,413.561 156.5,415C 156.833,415.333 157.167,415.667 157.5,416C 153.148,416.419 152.815,417.086 156.5,418C 152.639,418.569 152.639,419.402 156.5,420.5C 152.543,423.437 148.21,424.104 143.5,422.5C 141.803,422.899 140.137,423.399 138.5,424C 150.829,424.5 163.162,424.667 175.5,424.5C 175.5,424.833 175.5,425.167 175.5,425.5C 175.167,425.5 174.833,425.5 174.5,425.5C 171.833,425.5 169.167,425.5 166.5,425.5C 157.172,426.701 147.839,426.701 138.5,425.5C 137.833,425.5 137.167,425.5 136.5,425.5C 136.167,424.833 135.833,424.167 135.5,423.5C 144.842,418.829 154.176,414.162 163.5,409.5 Z"/></g>
<g><path style="opacity:1" fill="#354768" d="M 136.5,425.5 C 137.167,425.5 137.833,425.5 138.5,425.5C 147.823,428.085 157.156,428.085 166.5,425.5C 169.167,425.5 171.833,425.5 174.5,425.5C 172.981,426.41 171.315,427.243 169.5,428C 158.88,428.406 148.38,428.573 138,428.5C 137.487,427.473 136.987,426.473 136.5,425.5 Z"/></g>
<g><path style="opacity:1" fill="#a47b59" d="M 138.5,425.5 C 147.839,426.701 157.172,426.701 166.5,425.5C 157.156,428.085 147.823,428.085 138.5,425.5 Z"/></g>
<g><path style="opacity:0.996" fill="#4b6891" d="M 390.5,431.5 C 389.69,436.462 387.357,440.462 383.5,443.5C 383.389,442.883 383.056,442.383 382.5,442C 385.508,438.655 387.674,434.822 389,430.5C 389.383,431.056 389.883,431.389 390.5,431.5 Z"/></g>
<g><path style="opacity:0.994" fill="#657ca4" d="M 95.5,451.5 C 185.335,451.167 275.002,451.501 364.5,452.5C 272.499,452.667 180.499,452.5 88.5,452C 81.0537,450.379 75.0537,446.546 70.5,440.5C 71.2389,440.631 71.9056,440.464 72.5,440C 71.3044,439.346 71.3044,438.846 72.5,438.5C 75.6909,441.111 78.3576,444.278 80.5,448C 85.5725,449.019 90.5725,450.185 95.5,451.5 Z"/></g>
<g><path style="opacity:0.919" fill="#1b4478" d="M 95.5,451.5 C 140.332,450.833 185.332,450.5 230.5,450.5C 275.838,450.5 320.838,451.167 365.5,452.5C 365.167,452.5 364.833,452.5 364.5,452.5C 275.002,451.501 185.335,451.167 95.5,451.5 Z"/></g>
</svg>
