<?xml version="1.0" encoding="UTF-8"?>
<!DOCTYPE svg PUBLIC "-//W3C//DTD SVG 1.1//EN" "http://www.w3.org/Graphics/SVG/1.1/DTD/svg11.dtd">
<svg xmlns="http://www.w3.org/2000/svg" version="1.1" width="1024px" height="1024px" style="shape-rendering:geometricPrecision; text-rendering:geometricPrecision; image-rendering:optimizeQuality; fill-rule:evenodd; clip-rule:evenodd" xmlns:xlink="http://www.w3.org/1999/xlink">
<g><path style="opacity:1" fill="#1862a7" d="M -0.5,-0.5 C 340.833,-0.5 682.167,-0.5 1023.5,-0.5C 1023.5,340.833 1023.5,682.167 1023.5,1023.5C 682.167,1023.5 340.833,1023.5 -0.5,1023.5C -0.5,682.167 -0.5,340.833 -0.5,-0.5 Z"/></g>
<g><path style="opacity:1" fill="#0c499a" d="M 644.5,105.5 C 665.082,124.58 685.249,144.247 705,164.5C 705.464,165.094 705.631,165.761 705.5,166.5C 684.833,146.5 664.5,126.167 644.5,105.5 Z"/></g>
<g><path style="opacity:1" fill="#fdfdfe" d="M 644.5,105.5 C 664.5,126.167 684.833,146.5 705.5,166.5C 733.797,195.965 762.297,225.298 791,254.5C 792.524,256.898 794.024,259.231 795.5,261.5C 797.768,266.234 799.268,271.234 800,276.5C 800.667,303.833 800.667,331.167 800,358.5C 796.566,359.799 793.4,361.465 790.5,363.5C 738.868,386.814 687.534,410.98 636.5,436C 618.916,442.072 608.916,454.238 606.5,472.5C 607.251,481.168 610.585,488.668 616.5,495C 628.5,504.333 640.5,513.667 652.5,523C 656.672,526.499 661.338,529.166 666.5,531C 659.722,541.444 652.556,551.611 645,561.5C 630.04,580.293 614.54,598.626 598.5,616.5C 586.167,628.167 574.167,640.167 562.5,652.5C 498.452,710.198 428.452,759.532 352.5,800.5C 339.131,806.852 325.798,813.185 312.5,819.5C 301.482,825.008 290.149,829.841 278.5,834C 267.59,840.465 264.424,849.632 269,861.5C 273.879,867.794 280.046,869.628 287.5,867C 304.354,857.905 321.688,849.905 339.5,843C 378.49,821.84 417.157,800.173 455.5,778C 522.884,734.317 583.384,682.15 637,621.5C 645.667,611.5 654.333,601.5 663,591.5C 678.118,571.38 693.618,551.547 709.5,532C 687.5,518.667 665.5,505.333 643.5,492C 635.59,482.294 637.257,474.627 648.5,469C 700.683,444.075 752.683,418.908 804.5,393.5C 832.587,380.958 860.587,368.125 888.5,355C 896.578,352.955 902.078,355.788 905,363.5C 905.726,368.239 905.393,372.905 904,377.5C 879.505,464.483 855.172,551.483 831,638.5C 826.299,644.41 820.466,645.91 813.5,643C 800.333,631.167 787.167,619.333 774,607.5C 737.867,649.967 698.7,689.467 656.5,726C 617.04,758.561 575.04,787.394 530.5,812.5C 516.495,819.169 502.495,825.836 488.5,832.5C 487.833,832.5 487.5,832.833 487.5,833.5C 482.833,835.5 478.167,837.5 473.5,839.5C 472.957,839.56 472.624,839.893 472.5,840.5C 548.332,841.832 623.999,841.832 699.5,840.5C 702.649,840.585 705.316,839.585 707.5,837.5C 713.673,834.471 717.506,829.471 719,822.5C 719.333,786.5 719.667,750.5 720,714.5C 724.249,709.256 729.416,705.089 735.5,702C 745.005,693.661 754.005,684.828 762.5,675.5C 767.798,670.703 772.965,665.703 778,660.5C 785.636,667.135 792.97,674.135 800,681.5C 800.5,744.499 800.667,807.499 800.5,870.5C 797.678,898.609 782.678,916.776 755.5,925C 566.834,925.5 378.167,925.667 189.5,925.5C 184.042,925.135 178.708,924.135 173.5,922.5C 154.513,913.217 142.68,898.217 138,877.5C 137.333,625.833 137.333,374.167 138,122.5C 145.518,99.3196 161.351,85.8196 185.5,82C 324.167,81.3333 462.833,81.3333 601.5,82C 609.352,82.1296 616.686,84.1296 623.5,88C 630.665,93.668 637.665,99.5014 644.5,105.5 Z"/></g>
<g><path style="opacity:1" fill="#1861a7" d="M 518.5,251.5 C 517.078,251.709 515.745,252.209 514.5,253C 428.833,253.667 343.167,253.667 257.5,253C 255.595,251.579 253.595,250.412 251.5,249.5C 248.444,247.737 246.611,245.07 246,241.5C 243.693,229.946 247.86,221.779 258.5,217C 343.5,216.333 428.5,216.333 513.5,217C 525.418,222.679 529.251,231.846 525,244.5C 523.718,247.786 521.552,250.12 518.5,251.5 Z"/></g>
<g><path style="opacity:1" fill="#0a51a0" d="M 251.5,249.5 C 253.595,250.412 255.595,251.579 257.5,253C 343.167,253.667 428.833,253.667 514.5,253C 515.745,252.209 517.078,251.709 518.5,251.5C 516.779,253.694 514.445,254.861 511.5,255C 427.5,255.667 343.5,255.667 259.5,255C 255.93,254.389 253.263,252.556 251.5,249.5 Z"/></g>
<g><path style="opacity:1" fill="#053691" d="M 790.5,363.5 C 793.4,361.465 796.566,359.799 800,358.5C 800.667,331.167 800.667,303.833 800,276.5C 799.268,271.234 797.768,266.234 795.5,261.5C 796.97,262.225 798.136,263.891 799,266.5C 799.92,269.101 800.587,271.768 801,274.5C 801.667,302.833 801.667,331.167 801,359.5C 797.676,361.33 794.176,362.663 790.5,363.5 Z"/></g>
<g><path style="opacity:1" fill="#185fa6" d="M 258.5,350.5 C 366.834,350.333 475.167,350.5 583.5,351C 595.84,357.54 599.34,367.373 594,380.5C 590.989,384.52 587.156,387.353 582.5,389C 474.5,389.667 366.5,389.667 258.5,389C 247.566,383.963 243.399,375.463 246,363.5C 248.353,357.315 252.52,352.982 258.5,350.5 Z"/></g>
<g><path style="opacity:1" fill="#1a61a7" d="M 259.5,483.5 C 344.167,483.333 428.834,483.5 513.5,484C 526.674,490.183 530.507,500.016 525,513.5C 521.586,518.252 517.086,521.419 511.5,523C 428.5,523.667 345.5,523.667 262.5,523C 248.626,518.753 243.459,509.586 247,495.5C 249.744,489.921 253.911,485.921 259.5,483.5 Z"/></g>
<g><path style="opacity:1" fill="#094699" d="M 598.5,616.5 C 587.756,628.747 576.423,640.58 564.5,652C 563.906,652.464 563.239,652.631 562.5,652.5C 574.167,640.167 586.167,628.167 598.5,616.5 Z"/></g>
<g><path style="opacity:1" fill="#1961a7" d="M 790.5,363.5 C 789.378,364.947 787.878,365.947 786,366.5C 784.601,369.021 784.101,371.521 784.5,374C 786.13,376.36 787.797,378.193 789.5,379.5C 790.799,378.91 791.632,377.91 792,376.5C 793.471,378.616 792.804,380.283 790,381.5C 789.586,381.043 789.086,380.709 788.5,380.5C 787.719,381.729 787.219,383.062 787,384.5C 784.871,383.137 784.371,383.471 785.5,385.5C 784.895,387.481 783.895,387.815 782.5,386.5C 781.5,386.833 780.833,387.5 780.5,388.5C 781.522,389.354 782.355,390.354 783,391.5C 784.011,390.663 785.178,390.33 786.5,390.5C 787.517,393.027 787.517,395.527 786.5,398C 786.613,399.28 787.28,400.113 788.5,400.5C 793.632,397.598 798.965,395.265 804.5,393.5C 752.683,418.908 700.683,444.075 648.5,469C 637.257,474.627 635.59,482.294 643.5,492C 665.5,505.333 687.5,518.667 709.5,532C 693.618,551.547 678.118,571.38 663,591.5C 654.333,601.5 645.667,611.5 637,621.5C 583.384,682.15 522.884,734.317 455.5,778C 417.157,800.173 378.49,821.84 339.5,843C 321.688,849.905 304.354,857.905 287.5,867C 280.046,869.628 273.879,867.794 269,861.5C 264.424,849.632 267.59,840.465 278.5,834C 290.149,829.841 301.482,825.008 312.5,819.5C 313.251,820.573 314.251,820.74 315.5,820C 328.638,813.779 340.971,807.279 352.5,800.5C 428.452,759.532 498.452,710.198 562.5,652.5C 563.239,652.631 563.906,652.464 564.5,652C 576.423,640.58 587.756,628.747 598.5,616.5C 614.54,598.626 630.04,580.293 645,561.5C 652.556,551.611 659.722,541.444 666.5,531C 661.338,529.166 656.672,526.499 652.5,523C 640.5,513.667 628.5,504.333 616.5,495C 610.585,488.668 607.251,481.168 606.5,472.5C 608.916,454.238 618.916,442.072 636.5,436C 687.534,410.98 738.868,386.814 790.5,363.5 Z"/></g>
<g><path style="opacity:1" fill="#144b9a" d="M 800.5,870.5 C 800.667,807.499 800.5,744.499 800,681.5C 792.97,674.135 785.636,667.135 778,660.5C 772.965,665.703 767.798,670.703 762.5,675.5C 762.343,674.127 762.51,672.793 763,671.5C 763.333,671.833 763.667,672.167 764,672.5C 768.5,668 773,663.5 777.5,659C 778.167,658.333 778.833,658.333 779.5,659C 781.809,663.253 784.309,663.42 787,659.5C 788.187,661.044 788.52,662.711 788,664.5C 786.358,663.154 785.691,663.487 786,665.5C 791.699,670.865 797.033,676.531 802,682.5C 802.089,748.516 801.589,811.183 800.5,870.5 Z"/></g>
<g><path style="opacity:1" fill="#0f489a" d="M 352.5,800.5 C 340.971,807.279 328.638,813.779 315.5,820C 314.251,820.74 313.251,820.573 312.5,819.5C 325.798,813.185 339.131,806.852 352.5,800.5 Z"/></g>
<g><path style="opacity:1" fill="#174b9b" d="M 530.5,812.5 C 517.364,820.236 503.697,827.236 489.5,833.5C 488.893,833.376 488.56,833.043 488.5,832.5C 502.495,825.836 516.495,819.169 530.5,812.5 Z"/></g>
<g><path style="opacity:1" fill="#003f94" d="M 487.5,833.5 C 484.898,835.81 481.898,837.643 478.5,839C 553.167,839.667 627.833,839.667 702.5,839C 704.025,837.991 705.692,837.491 707.5,837.5C 705.316,839.585 702.649,840.585 699.5,840.5C 623.998,840.833 548.665,840.499 473.5,839.5C 478.167,837.5 482.833,835.5 487.5,833.5 Z"/></g>
<g><path style="opacity:1" fill="#4580b8" d="M 473.5,839.5 C 548.665,840.499 623.998,840.833 699.5,840.5C 623.999,841.832 548.332,841.832 472.5,840.5C 472.624,839.893 472.957,839.56 473.5,839.5 Z"/></g>
<g><path style="opacity:1" fill="#004396" d="M 173.5,922.5 C 178.708,924.135 184.042,925.135 189.5,925.5C 376.666,926.333 564,926.833 751.5,927C 563.167,927.667 374.833,927.667 186.5,927C 182.5,926 178.5,925 174.5,924C 173.944,923.617 173.611,923.117 173.5,922.5 Z"/></g>
</svg>
