<?xml version="1.0" encoding="UTF-8"?>
<!DOCTYPE svg PUBLIC "-//W3C//DTD SVG 1.1//EN" "http://www.w3.org/Graphics/SVG/1.1/DTD/svg11.dtd">
<svg xmlns="http://www.w3.org/2000/svg" version="1.1" width="1024px" height="1024px" style="shape-rendering:geometricPrecision; text-rendering:geometricPrecision; image-rendering:optimizeQuality; fill-rule:evenodd; clip-rule:evenodd" xmlns:xlink="http://www.w3.org/1999/xlink">
<g><path style="opacity:1" fill="#fdfdfd" d="M -0.5,-0.5 C 340.833,-0.5 682.167,-0.5 1023.5,-0.5C 1023.5,340.833 1023.5,682.167 1023.5,1023.5C 682.167,1023.5 340.833,1023.5 -0.5,1023.5C -0.5,682.167 -0.5,340.833 -0.5,-0.5 Z"/></g>
<g><path style="opacity:1" fill="#1a4e8b" d="M 750.5,215.5 C 762.077,228.581 774.244,241.247 787,253.5C 792.83,260.158 796.83,267.825 799,276.5C 799.464,275.906 799.631,275.239 799.5,274.5C 800.314,276.631 800.814,278.964 801,281.5C 801.833,306.84 801.666,332.173 800.5,357.5C 741.319,386.257 681.986,414.757 622.5,443C 605.78,455.481 602.947,470.648 614,488.5C 632.741,504.119 651.575,519.619 670.5,535C 626.537,590.63 576.87,640.63 521.5,685C 445.429,744.269 363.095,793.936 274.5,834C 265.651,842.65 264.151,852.484 270,863.5C 272.501,866.848 275.668,869.182 279.5,870.5C 290.583,874.088 302.083,875.755 314,875.5C 367.125,872.591 418.292,861.258 467.5,841.5C 546.501,841.667 625.501,841.5 704.5,841C 712.016,838.649 717.016,833.816 719.5,826.5C 719.435,826.938 719.601,827.272 720,827.5C 720.333,826.833 720.667,826.167 721,825.5C 721.333,788.833 721.667,752.167 722,715.5C 729.06,708.969 735.226,702.302 740.5,695.5C 752.786,683.549 765.119,671.549 777.5,659.5C 785.482,666.315 793.316,673.315 801,680.5C 801.5,690.161 801.666,699.828 801.5,709.5C 800.667,762.998 800.167,816.665 800,870.5C 799.462,875.171 798.962,879.838 798.5,884.5C 791.608,906.804 776.608,920.137 753.5,924.5C 569,923.334 384.334,923.167 199.5,924C 196.305,924.181 193.305,924.681 190.5,925.5C 169.514,924.098 153.681,914.431 143,896.5C 139.997,890.49 137.997,884.157 137,877.5C 136.333,629.167 136.333,380.833 137,132.5C 140.364,111.14 151.531,95.3067 170.5,85C 175.054,83.2595 179.721,81.9261 184.5,81C 325.196,80.0097 465.862,80.343 606.5,82C 615.337,84.4184 623.337,88.4184 630.5,94C 671.091,134.09 711.091,174.59 750.5,215.5 Z"/></g>
<g><path style="opacity:1" fill="#fdfdfd" d="M 259.5,216.5 C 344.167,216.333 428.834,216.5 513.5,217C 520.237,218.736 524.737,222.903 527,229.5C 528.281,236.543 527.281,243.21 524,249.5C 522.062,252.106 519.562,253.939 516.5,255C 430.167,255.667 343.833,255.667 257.5,255C 246.877,250.256 242.71,242.089 245,230.5C 247.774,223.557 252.607,218.89 259.5,216.5 Z"/></g>
<g><path style="opacity:1" fill="#0d367d" d="M 750.5,215.5 C 765.86,229.693 780.36,244.693 794,260.5C 796.529,264.926 798.362,269.592 799.5,274.5C 799.631,275.239 799.464,275.906 799,276.5C 796.83,267.825 792.83,260.158 787,253.5C 774.244,241.247 762.077,228.581 750.5,215.5 Z"/></g>
<g><path style="opacity:1" fill="#0a3a80" d="M 585.5,350.5 C 476.862,349.506 368.195,349.173 259.5,349.5C 260.609,348.71 261.942,348.21 263.5,348C 368.833,347.333 474.167,347.333 579.5,348C 582.555,348.04 584.555,348.873 585.5,350.5 Z"/></g>
<g><path style="opacity:1" fill="#fdfdfd" d="M 259.5,349.5 C 368.195,349.173 476.862,349.506 585.5,350.5C 597.929,357.633 600.762,367.633 594,380.5C 591.559,383.454 588.725,385.787 585.5,387.5C 476.861,388.551 368.195,389.217 259.5,389.5C 244.275,382.322 240.775,371.322 249,356.5C 252.154,353.488 255.654,351.155 259.5,349.5 Z"/></g>
<g><path style="opacity:1" fill="#f78d24" d="M 467.5,841.5 C 418.292,861.258 367.125,872.591 314,875.5C 302.083,875.755 290.583,874.088 279.5,870.5C 315.807,851.68 352.14,832.846 388.5,814C 461.132,773.033 528.465,724.7 590.5,669C 635.147,626.367 676.147,580.7 713.5,532C 690.833,518 668.167,504 645.5,490C 638.675,483.406 639.008,477.073 646.5,471C 727.983,432.928 809.317,394.261 890.5,355C 902.473,353.975 907.64,359.475 906,371.5C 902.333,383.167 898.667,394.833 895,406.5C 875.957,478.671 856.291,550.671 836,622.5C 834.789,628.132 832.789,633.466 830,638.5C 826.178,644.041 821.011,645.874 814.5,644C 801.247,634.085 788.581,623.418 776.5,612C 775.5,611.333 774.5,611.333 773.5,612C 729.588,660.254 682.255,704.587 631.5,745C 580.788,783.536 526.121,815.703 467.5,841.5 Z"/></g>
<g><path style="opacity:1" fill="#254486" d="M 585.5,387.5 C 585.253,388.876 583.919,389.71 581.5,390C 473.999,390.833 366.666,390.666 259.5,389.5C 368.195,389.217 476.861,388.551 585.5,387.5 Z"/></g>
<g><path style="opacity:1" fill="#fdfdfd" d="M 258.5,483.5 C 343.501,483.333 428.501,483.5 513.5,484C 526.847,490.376 530.013,500.209 523,513.5C 519.835,517.666 515.668,520.166 510.5,521C 426.497,521.511 342.497,521.844 258.5,522C 245.038,515.949 241.204,506.115 247,492.5C 250.161,488.491 253.994,485.491 258.5,483.5 Z"/></g>
<g><path style="opacity:1" fill="#1c4385" d="M 740.5,695.5 C 735.226,702.302 729.06,708.969 722,715.5C 721.667,752.167 721.333,788.833 721,825.5C 720.667,826.167 720.333,826.833 720,827.5C 719.601,827.272 719.435,826.938 719.5,826.5C 719.333,789.498 719.5,752.498 720,715.5C 726.702,708.631 733.535,701.964 740.5,695.5 Z"/></g>
<g><path style="opacity:1" fill="#011d6a" d="M 801.5,709.5 C 801.667,764.834 801.5,820.168 801,875.5C 800.796,878.797 799.963,881.797 798.5,884.5C 798.962,879.838 799.462,875.171 800,870.5C 800.167,816.665 800.667,762.998 801.5,709.5 Z"/></g>
<g><path style="opacity:1" fill="#093f83" d="M 753.5,924.5 C 565.855,925.495 378.188,925.829 190.5,925.5C 193.305,924.681 196.305,924.181 199.5,924C 384.334,923.167 569,923.334 753.5,924.5 Z"/></g>
</svg>
