<?xml version="1.0" encoding="UTF-8"?>
<!DOCTYPE svg PUBLIC "-//W3C//DTD SVG 1.1//EN" "http://www.w3.org/Graphics/SVG/1.1/DTD/svg11.dtd">
<svg xmlns="http://www.w3.org/2000/svg" version="1.1" width="500px" height="500px" style="shape-rendering:geometricPrecision; text-rendering:geometricPrecision; image-rendering:optimizeQuality; fill-rule:evenodd; clip-rule:evenodd" xmlns:xlink="http://www.w3.org/1999/xlink">
<g><path style="opacity:1" fill="#fafbfc" d="M 390.5,134.5 C 390.5,147.833 390.5,161.167 390.5,174.5C 387.312,174.512 384.478,175.512 382,177.5C 380.893,177.415 379.893,177.081 379,176.5C 379.143,177.865 379.643,179.198 380.5,180.5C 363.986,187.655 347.653,195.321 331.5,203.5C 327.091,203.876 323.424,205.543 320.5,208.5C 317.697,210.215 314.697,211.548 311.5,212.5C 309.167,212.5 306.833,212.5 304.5,212.5C 304.5,213.5 304.5,214.5 304.5,215.5C 295.718,218.708 293.051,224.708 296.5,233.5C 298.019,236.021 299.686,238.521 301.5,241C 309.667,247.006 317.667,253.173 325.5,259.5C 298.312,298.188 265.312,331.021 226.5,358C 197.209,378.311 166.209,395.478 133.5,409.5C 129.2,414.134 129.534,418.301 134.5,422C 136.5,422.667 138.5,422.667 140.5,422C 168.83,408.69 196.497,394.024 223.5,378C 270.735,345.765 311.069,306.432 344.5,260C 334.036,252.93 323.369,246.096 312.5,239.5C 309.491,235.374 310.158,231.874 314.5,229C 353.423,210.037 392.423,191.371 431.5,173C 440.838,171.341 444.338,175.175 442,184.5C 434.194,210.668 426.694,237.001 419.5,263.5C 418.25,263.577 417.417,264.244 417,265.5C 414.925,273.154 413.425,280.821 412.5,288.5C 411.14,295.604 409.307,302.604 407,309.5C 404.745,315.519 400.912,316.853 395.5,313.5C 389.517,308.351 383.684,303.018 378,297.5C 344.325,337.876 304.825,371.043 259.5,397C 251.206,400.812 242.873,404.645 234.5,408.5C 233.325,408.281 232.325,408.614 231.5,409.5C 268.664,410.83 305.664,410.83 342.5,409.5C 344.907,408.206 347.074,406.539 349,404.5C 349.038,385.435 349.704,366.435 351,347.5C 360.975,339.358 370.475,330.692 379.5,321.5C 383.791,324.123 387.457,327.456 390.5,331.5C 391.667,363.495 391.833,395.495 391,427.5C 389.488,439.035 383.321,446.869 372.5,451C 277.89,452.659 183.223,452.993 88.5,452C 80.3884,450.131 74.3884,445.631 70.5,438.5C 70.2436,436.208 70.5769,434.041 71.5,432C 69.1144,431.716 68.4477,430.716 69.5,429C 68.8095,427.933 68.3095,426.766 68,425.5C 67.8331,303.666 67.3331,181.999 66.5,60.5C 69.3935,48.4453 77.0602,41.2787 89.5,39C 158.167,38.3333 226.833,38.3333 295.5,39C 300.025,39.5602 304.025,41.2269 307.5,44C 335.7,70.8662 362.867,98.6995 389,127.5C 389.662,129.813 390.162,132.146 390.5,134.5 Z M 124.5,106.5 C 166.835,106.333 209.168,106.5 251.5,107C 258.527,113.917 257.527,119.583 248.5,124C 208.167,124.667 167.833,124.667 127.5,124C 121.513,121.86 119.346,117.693 121,111.5C 121.997,109.677 123.164,108.01 124.5,106.5 Z M 126.5,171.5 C 179.168,171.333 231.834,171.5 284.5,172C 292.5,177.667 292.5,183.333 284.5,189C 231.096,189.828 177.763,189.662 124.5,188.5C 118.626,181.961 119.293,176.294 126.5,171.5 Z M 126.5,236.5 C 168.168,236.333 209.835,236.5 251.5,237C 258.412,243.167 258.079,248.833 250.5,254C 209.167,254.667 167.833,254.667 126.5,254C 118.555,248.17 118.555,242.336 126.5,236.5 Z"/></g>
<g><path style="opacity:0.274" fill="#c2d8f0" d="M 390.5,134.5 C 391.826,148.006 391.826,161.672 390.5,175.5C 387.14,177.18 383.807,178.847 380.5,180.5C 379.643,179.198 379.143,177.865 379,176.5C 379.893,177.081 380.893,177.415 382,177.5C 384.478,175.512 387.312,174.512 390.5,174.5C 390.5,161.167 390.5,147.833 390.5,134.5 Z"/></g>
<g><path style="opacity:0.417" fill="#a8bfda" d="M 126.5,171.5 C 180.332,170.335 234.332,170.168 288.5,171C 290.618,171.26 292.284,172.26 293.5,174C 293.628,178.644 292.461,183.144 290,187.5C 288.391,188.147 286.891,188.98 285.5,190C 258.667,190.167 231.833,190.333 205,190.5C 177.825,190.5 150.992,189.833 124.5,188.5C 177.763,189.662 231.096,189.828 284.5,189C 292.5,183.333 292.5,177.667 284.5,172C 231.834,171.5 179.168,171.333 126.5,171.5 Z"/></g>
<g><path style="opacity:0.851" fill="#a0b0dd" d="M 331.5,203.5 C 328.249,205.957 324.582,207.624 320.5,208.5C 323.424,205.543 327.091,203.876 331.5,203.5 Z"/></g>
<g><path style="opacity:0.92" fill="#bfd1e8" d="M 311.5,212.5 C 302.191,216.469 297.191,223.469 296.5,233.5C 293.051,224.708 295.718,218.708 304.5,215.5C 304.5,214.5 304.5,213.5 304.5,212.5C 306.833,212.5 309.167,212.5 311.5,212.5 Z"/></g>
<g><path style="opacity:1" fill="#abc2d9" d="M 419.5,263.5 C 417.627,271.997 415.293,280.33 412.5,288.5C 413.425,280.821 414.925,273.154 417,265.5C 417.417,264.244 418.25,263.577 419.5,263.5 Z"/></g>
<g><path style="opacity:0.735" fill="#d5effd" d="M 66.5,60.5 C 67.3331,181.999 67.8331,303.666 68,425.5C 68.3095,426.766 68.8095,427.933 69.5,429C 68.4477,430.716 69.1144,431.716 71.5,432C 70.5769,434.041 70.2436,436.208 70.5,438.5C 69.1881,436.304 68.0214,433.97 67,431.5C 66.5,307.834 66.3333,184.167 66.5,60.5 Z"/></g>
<g><path style="opacity:0.114" fill="#406992" d="M 234.5,408.5 C 270.329,409.498 306.329,409.832 342.5,409.5C 305.664,410.83 268.664,410.83 231.5,409.5C 232.325,408.614 233.325,408.281 234.5,408.5 Z"/></g>
</svg>
